<svg width="291" height="128" viewBox="0 0 291 128" fill="none" xmlns="http://www.w3.org/2000/svg">
<path d="M3.33333 7.83329L8.49999 11.7083C9.38889 12.375 10.6111 12.375 11.5 11.7083L16.6667 7.83325M4.16667 17.8333H15.8333C16.7538 17.8333 17.5 17.0871 17.5 16.1666V7.83329C17.5 6.91282 16.7538 6.16663 15.8333 6.16663H4.16667C3.24619 6.16663 2.5 6.91282 2.5 7.83329V16.1666C2.5 17.0871 3.24619 17.8333 4.16667 17.8333Z" stroke="#97A1AF" stroke-width="1.5" stroke-linecap="round"/>
<path d="M29.142 18V9.27273H30.7727V10.6932H30.8807C31.0625 10.2121 31.3598 9.83712 31.7727 9.56818C32.1856 9.29545 32.6799 9.15909 33.2557 9.15909C33.839 9.15909 34.3277 9.29545 34.7216 9.56818C35.1193 9.84091 35.4129 10.2159 35.6023 10.6932H35.6932C35.9015 10.2273 36.233 9.85606 36.6875 9.57955C37.142 9.29924 37.6837 9.15909 38.3125 9.15909C39.1042 9.15909 39.75 9.4072 40.25 9.90341C40.7538 10.3996 41.0057 11.1477 41.0057 12.1477V18H39.3068V12.3068C39.3068 11.7159 39.1458 11.2879 38.8239 11.0227C38.5019 10.7576 38.1174 10.625 37.6705 10.625C37.1174 10.625 36.6875 10.7955 36.3807 11.1364C36.0739 11.4735 35.9205 11.9072 35.9205 12.4375V18H34.2273V12.1989C34.2273 11.7254 34.0795 11.3447 33.7841 11.0568C33.4886 10.7689 33.1042 10.625 32.6307 10.625C32.3087 10.625 32.0114 10.7102 31.7386 10.8807C31.4697 11.0473 31.2519 11.2803 31.0852 11.5795C30.9223 11.8788 30.8409 12.2254 30.8409 12.6193V18H29.142ZM45.8224 18.1932C45.2694 18.1932 44.7694 18.0909 44.3224 17.8864C43.8755 17.678 43.5213 17.3769 43.2599 16.983C43.0024 16.589 42.8736 16.1061 42.8736 15.5341C42.8736 15.0417 42.9683 14.6364 43.1577 14.3182C43.3471 14 43.6027 13.7481 43.9247 13.5625C44.2467 13.3769 44.6065 13.2367 45.0043 13.142C45.402 13.0473 45.8073 12.9754 46.2202 12.9261C46.7429 12.8655 47.1671 12.8163 47.4929 12.7784C47.8187 12.7367 48.0554 12.6705 48.2031 12.5795C48.3509 12.4886 48.4247 12.3409 48.4247 12.1364V12.0966C48.4247 11.6004 48.2846 11.2159 48.0043 10.9432C47.7277 10.6705 47.3149 10.5341 46.7656 10.5341C46.1937 10.5341 45.7429 10.661 45.4134 10.9148C45.0876 11.1648 44.8622 11.4432 44.7372 11.75L43.1406 11.3864C43.33 10.8561 43.6065 10.428 43.9702 10.1023C44.3376 9.77273 44.7599 9.53409 45.2372 9.38636C45.7145 9.23485 46.2164 9.15909 46.7429 9.15909C47.0914 9.15909 47.4607 9.20076 47.8509 9.28409C48.2448 9.36364 48.6122 9.51136 48.9531 9.72727C49.2978 9.94318 49.58 10.2519 49.7997 10.6534C50.0194 11.0511 50.1293 11.5682 50.1293 12.2045V18H48.4702V16.8068H48.402C48.2921 17.0265 48.1274 17.2424 47.9077 17.4545C47.688 17.6667 47.4058 17.8428 47.0611 17.983C46.7164 18.1231 46.3035 18.1932 45.8224 18.1932ZM46.1918 16.8295C46.6615 16.8295 47.063 16.7367 47.3963 16.5511C47.7334 16.3655 47.9891 16.1231 48.1634 15.8239C48.3414 15.5208 48.4304 15.197 48.4304 14.8523V13.7273C48.3698 13.7879 48.2524 13.8447 48.0781 13.8977C47.9077 13.947 47.7126 13.9905 47.4929 14.0284C47.2732 14.0625 47.0592 14.0947 46.8509 14.125C46.6425 14.1515 46.4683 14.1742 46.3281 14.1932C45.9986 14.2348 45.6974 14.3049 45.4247 14.4034C45.1558 14.5019 44.9399 14.6439 44.777 14.8295C44.6179 15.0114 44.5384 15.2538 44.5384 15.5568C44.5384 15.9773 44.6937 16.2955 45.0043 16.5114C45.3149 16.7235 45.7107 16.8295 46.1918 16.8295ZM52.392 18V9.27273H54.0909V18H52.392ZM53.25 7.92614C52.9545 7.92614 52.7008 7.82765 52.4886 7.63068C52.2803 7.42992 52.1761 7.19129 52.1761 6.91477C52.1761 6.63447 52.2803 6.39583 52.4886 6.19886C52.7008 5.99811 52.9545 5.89773 53.25 5.89773C53.5455 5.89773 53.7973 5.99811 54.0057 6.19886C54.2178 6.39583 54.3239 6.63447 54.3239 6.91477C54.3239 7.19129 54.2178 7.42992 54.0057 7.63068C53.7973 7.82765 53.5455 7.92614 53.25 7.92614ZM58.0753 6.36364V18H56.3764V6.36364H58.0753ZM67.3665 21.1648C66.1922 21.1648 65.1506 21.0038 64.2415 20.6818C63.3362 20.3636 62.5729 19.8939 61.9517 19.2727C61.3305 18.6553 60.8589 17.8977 60.5369 17C60.215 16.1023 60.054 15.0777 60.054 13.9261C60.054 12.8049 60.2169 11.7973 60.5426 10.9034C60.8684 10.0095 61.3419 9.24811 61.9631 8.61932C62.5881 7.98674 63.3475 7.50379 64.2415 7.17045C65.1354 6.83712 66.1506 6.67045 67.2869 6.67045C68.3741 6.67045 69.3324 6.84091 70.1619 7.18182C70.9915 7.52273 71.6884 7.99053 72.2528 8.58523C72.821 9.17992 73.2491 9.86174 73.5369 10.6307C73.8248 11.3996 73.9688 12.2121 73.9688 13.0682C73.9688 13.6667 73.9309 14.2519 73.8551 14.8239C73.7794 15.392 73.6392 15.9072 73.4347 16.3693C73.2339 16.8277 72.9422 17.1951 72.5597 17.4716C72.1809 17.7443 71.6884 17.8864 71.0824 17.8977C70.7604 17.9091 70.4479 17.8712 70.1449 17.7841C69.8419 17.697 69.5843 17.5568 69.3722 17.3636C69.16 17.1667 69.0313 16.9167 68.9858 16.6136H68.9176C68.8267 16.8371 68.6752 17.0455 68.4631 17.2386C68.2509 17.428 67.9801 17.5795 67.6506 17.6932C67.3248 17.803 66.946 17.8485 66.5142 17.8295C66.0369 17.8106 65.607 17.7027 65.2244 17.5057C64.8419 17.3087 64.5142 17.036 64.2415 16.6875C63.9725 16.339 63.7661 15.9261 63.6222 15.4489C63.4782 14.9716 63.4062 14.4413 63.4062 13.858C63.4062 13.2973 63.4877 12.7955 63.6506 12.3523C63.8134 11.9053 64.035 11.5208 64.3153 11.1989C64.5994 10.8731 64.9252 10.6155 65.2926 10.4261C65.66 10.2367 66.0483 10.1174 66.4574 10.0682C66.8551 10.0227 67.2206 10.0341 67.554 10.1023C67.8873 10.1705 68.1638 10.2746 68.3835 10.4148C68.607 10.5549 68.7472 10.7083 68.804 10.875H68.8778V10.2386H70.2756V15.5114C70.2756 15.8106 70.3532 16.0644 70.5085 16.2727C70.6676 16.4811 70.893 16.5852 71.1847 16.5852C71.5294 16.5852 71.7983 16.4583 71.9915 16.2045C72.1884 15.9508 72.3267 15.5606 72.4062 15.0341C72.4896 14.5076 72.5312 13.8333 72.5312 13.0114C72.5312 12.4356 72.4536 11.8939 72.2983 11.3864C72.1468 10.875 71.9214 10.4129 71.6222 10C71.3267 9.58333 70.9631 9.22538 70.5312 8.92614C70.0994 8.62689 69.607 8.39583 69.054 8.23295C68.5047 8.07008 67.8968 7.98864 67.2301 7.98864C66.3248 7.98864 65.5199 8.12879 64.8153 8.40909C64.1108 8.68561 63.5161 9.08523 63.0312 9.60795C62.5502 10.1307 62.1847 10.7576 61.9347 11.4886C61.6884 12.2159 61.5653 13.0322 61.5653 13.9375C61.5653 14.8807 61.6922 15.7178 61.946 16.4489C62.1998 17.1761 62.5748 17.7898 63.071 18.2898C63.5672 18.7898 64.1809 19.1686 64.9119 19.4261C65.643 19.6875 66.4858 19.8182 67.4403 19.8182C67.8646 19.8182 68.2813 19.7803 68.6903 19.7045C69.0994 19.6326 69.4631 19.5492 69.7812 19.4545C70.1032 19.3636 70.3438 19.2898 70.5028 19.233L70.9006 20.4773C70.6657 20.5871 70.3532 20.6951 69.9631 20.8011C69.5767 20.9072 69.1563 20.9943 68.7017 21.0625C68.2509 21.1307 67.8059 21.1648 67.3665 21.1648ZM66.8438 16.4375C67.3362 16.4375 67.732 16.339 68.0312 16.142C68.3343 15.9451 68.5521 15.6515 68.6847 15.2614C68.821 14.8674 68.8892 14.375 68.8892 13.7841C68.8854 13.2083 68.8116 12.75 68.6676 12.4091C68.5275 12.0644 68.3078 11.8182 68.0085 11.6705C67.7131 11.5189 67.3324 11.4432 66.8665 11.4432C66.4384 11.4432 66.0729 11.5473 65.7699 11.7557C65.4706 11.964 65.2415 12.2462 65.0824 12.6023C64.9271 12.9583 64.8475 13.3542 64.8438 13.7898C64.8475 14.2481 64.9119 14.6799 65.0369 15.0852C65.1657 15.4867 65.3741 15.8125 65.6619 16.0625C65.9536 16.3125 66.3475 16.4375 66.8438 16.4375ZM75.8452 21.2727V9.27273H77.5043V10.6875H77.6463C77.7448 10.5057 77.8868 10.2955 78.0724 10.0568C78.258 9.81818 78.5156 9.60985 78.8452 9.43182C79.1747 9.25 79.6103 9.15909 80.152 9.15909C80.8565 9.15909 81.4853 9.33712 82.0384 9.69318C82.5914 10.0492 83.0251 10.5625 83.3395 11.233C83.6577 11.9034 83.8168 12.7102 83.8168 13.6534C83.8168 14.5966 83.6596 15.4053 83.3452 16.0795C83.0308 16.75 82.599 17.267 82.0497 17.6307C81.5005 17.9905 80.8736 18.1705 80.169 18.1705C79.6387 18.1705 79.205 18.0814 78.8679 17.9034C78.5346 17.7254 78.2732 17.517 78.0838 17.2784C77.8944 17.0398 77.7486 16.8277 77.6463 16.642H77.544V21.2727H75.8452ZM77.5099 13.6364C77.5099 14.25 77.599 14.7879 77.777 15.25C77.955 15.7121 78.2126 16.0739 78.5497 16.3352C78.8868 16.5928 79.2997 16.7216 79.7884 16.7216C80.2959 16.7216 80.7202 16.5871 81.0611 16.3182C81.402 16.0455 81.6596 15.6761 81.8338 15.2102C82.0118 14.7443 82.1009 14.2197 82.1009 13.6364C82.1009 13.0606 82.0137 12.5436 81.8395 12.0852C81.669 11.6269 81.4115 11.2652 81.0668 11C80.7259 10.7348 80.2997 10.6023 79.7884 10.6023C79.2959 10.6023 78.8793 10.7292 78.5384 10.983C78.2012 11.2367 77.9455 11.5909 77.7713 12.0455C77.5971 12.5 77.5099 13.0303 77.5099 13.6364ZM85.7202 18V9.27273H87.3622V10.6591H87.4531C87.6122 10.1894 87.8925 9.82008 88.294 9.55114C88.6993 9.27841 89.1577 9.14205 89.669 9.14205C89.7751 9.14205 89.9001 9.14583 90.044 9.15341C90.1918 9.16098 90.3073 9.17045 90.3906 9.18182V10.8068C90.3224 10.7879 90.2012 10.767 90.027 10.7443C89.8527 10.7178 89.6785 10.7045 89.5043 10.7045C89.1027 10.7045 88.7448 10.7898 88.4304 10.9602C88.1198 11.1269 87.8736 11.3598 87.6918 11.6591C87.5099 11.9545 87.419 12.2917 87.419 12.6705V18H85.7202ZM95.3097 18.1761C94.4498 18.1761 93.7093 17.9924 93.0881 17.625C92.4706 17.2538 91.9934 16.733 91.6562 16.0625C91.3229 15.3883 91.1562 14.5985 91.1562 13.6932C91.1562 12.7992 91.3229 12.0114 91.6562 11.3295C91.9934 10.6477 92.4631 10.1155 93.0653 9.73295C93.6714 9.35038 94.3797 9.15909 95.1903 9.15909C95.6828 9.15909 96.16 9.24053 96.6222 9.40341C97.0843 9.56629 97.4991 9.82197 97.8665 10.1705C98.2339 10.5189 98.5237 10.9716 98.7358 11.5284C98.9479 12.0814 99.054 12.7538 99.054 13.5455V14.1477H92.1165V12.875H97.3892C97.3892 12.428 97.2983 12.0322 97.1165 11.6875C96.9347 11.339 96.679 11.0644 96.3494 10.8636C96.0237 10.6629 95.6411 10.5625 95.2017 10.5625C94.7244 10.5625 94.3078 10.6799 93.9517 10.9148C93.5994 11.1458 93.3267 11.4489 93.1335 11.8239C92.9441 12.1951 92.8494 12.5985 92.8494 13.0341V14.0284C92.8494 14.6117 92.9517 15.108 93.1562 15.517C93.3646 15.9261 93.6544 16.2386 94.0256 16.4545C94.3968 16.6667 94.8305 16.7727 95.3267 16.7727C95.6487 16.7727 95.9422 16.7273 96.2074 16.6364C96.4725 16.5417 96.7017 16.4015 96.8949 16.2159C97.0881 16.0303 97.2358 15.8011 97.3381 15.5284L98.946 15.8182C98.8172 16.2917 98.5862 16.7064 98.2528 17.0625C97.9233 17.4148 97.5085 17.6894 97.0085 17.8864C96.5123 18.0795 95.946 18.1761 95.3097 18.1761ZM100.939 18V9.27273H102.57V10.6932H102.678C102.859 10.2121 103.157 9.83712 103.57 9.56818C103.982 9.29545 104.477 9.15909 105.053 9.15909C105.636 9.15909 106.125 9.29545 106.518 9.56818C106.916 9.84091 107.21 10.2159 107.399 10.6932H107.49C107.698 10.2273 108.03 9.85606 108.484 9.57955C108.939 9.29924 109.481 9.15909 110.109 9.15909C110.901 9.15909 111.547 9.4072 112.047 9.90341C112.551 10.3996 112.803 11.1477 112.803 12.1477V18H111.104V12.3068C111.104 11.7159 110.943 11.2879 110.621 11.0227C110.299 10.7576 109.914 10.625 109.467 10.625C108.914 10.625 108.484 10.7955 108.178 11.1364C107.871 11.4735 107.717 11.9072 107.717 12.4375V18H106.024V12.1989C106.024 11.7254 105.876 11.3447 105.581 11.0568C105.286 10.7689 104.901 10.625 104.428 10.625C104.106 10.625 103.808 10.7102 103.536 10.8807C103.267 11.0473 103.049 11.2803 102.882 11.5795C102.719 11.8788 102.638 12.2254 102.638 12.6193V18H100.939ZM115.08 18V9.27273H116.778V18H115.08ZM115.938 7.92614C115.642 7.92614 115.388 7.82765 115.176 7.63068C114.968 7.42992 114.864 7.19129 114.864 6.91477C114.864 6.63447 114.968 6.39583 115.176 6.19886C115.388 5.99811 115.642 5.89773 115.938 5.89773C116.233 5.89773 116.485 5.99811 116.693 6.19886C116.905 6.39583 117.011 6.63447 117.011 6.91477C117.011 7.19129 116.905 7.42992 116.693 7.63068C116.485 7.82765 116.233 7.92614 115.938 7.92614ZM124.592 14.3807V9.27273H126.297V18H124.626V16.4886H124.536C124.335 16.9545 124.013 17.3428 123.57 17.6534C123.13 17.9602 122.583 18.1136 121.928 18.1136C121.367 18.1136 120.871 17.9905 120.439 17.7443C120.011 17.4943 119.674 17.125 119.428 16.6364C119.185 16.1477 119.064 15.5436 119.064 14.8239V9.27273H120.763V14.6193C120.763 15.214 120.928 15.6875 121.257 16.0398C121.587 16.392 122.015 16.5682 122.541 16.5682C122.859 16.5682 123.176 16.4886 123.49 16.3295C123.808 16.1705 124.071 15.9299 124.28 15.608C124.492 15.286 124.596 14.8769 124.592 14.3807ZM128.58 18V9.27273H130.21V10.6932H130.318C130.5 10.2121 130.797 9.83712 131.21 9.56818C131.623 9.29545 132.117 9.15909 132.693 9.15909C133.277 9.15909 133.765 9.29545 134.159 9.56818C134.557 9.84091 134.85 10.2159 135.04 10.6932H135.131C135.339 10.2273 135.67 9.85606 136.125 9.57955C136.58 9.29924 137.121 9.15909 137.75 9.15909C138.542 9.15909 139.188 9.4072 139.688 9.90341C140.191 10.3996 140.443 11.1477 140.443 12.1477V18H138.744V12.3068C138.744 11.7159 138.583 11.2879 138.261 11.0227C137.939 10.7576 137.555 10.625 137.108 10.625C136.555 10.625 136.125 10.7955 135.818 11.1364C135.511 11.4735 135.358 11.9072 135.358 12.4375V18H133.665V12.1989C133.665 11.7254 133.517 11.3447 133.222 11.0568C132.926 10.7689 132.542 10.625 132.068 10.625C131.746 10.625 131.449 10.7102 131.176 10.8807C130.907 11.0473 130.689 11.2803 130.523 11.5795C130.36 11.8788 130.278 12.2254 130.278 12.6193V18H128.58ZM142.72 21.2727V9.27273H144.379V10.6875H144.521C144.62 10.5057 144.762 10.2955 144.947 10.0568C145.133 9.81818 145.391 9.60985 145.72 9.43182C146.05 9.25 146.485 9.15909 147.027 9.15909C147.732 9.15909 148.36 9.33712 148.913 9.69318C149.466 10.0492 149.9 10.5625 150.214 11.233C150.533 11.9034 150.692 12.7102 150.692 13.6534C150.692 14.5966 150.535 15.4053 150.22 16.0795C149.906 16.75 149.474 17.267 148.925 17.6307C148.375 17.9905 147.749 18.1705 147.044 18.1705C146.514 18.1705 146.08 18.0814 145.743 17.9034C145.41 17.7254 145.148 17.517 144.959 17.2784C144.769 17.0398 144.624 16.8277 144.521 16.642H144.419V21.2727H142.72ZM144.385 13.6364C144.385 14.25 144.474 14.7879 144.652 15.25C144.83 15.7121 145.088 16.0739 145.425 16.3352C145.762 16.5928 146.175 16.7216 146.663 16.7216C147.171 16.7216 147.595 16.5871 147.936 16.3182C148.277 16.0455 148.535 15.6761 148.709 15.2102C148.887 14.7443 148.976 14.2197 148.976 13.6364C148.976 13.0606 148.889 12.5436 148.714 12.0852C148.544 11.6269 148.286 11.2652 147.942 11C147.601 10.7348 147.175 10.6023 146.663 10.6023C146.171 10.6023 145.754 10.7292 145.413 10.983C145.076 11.2367 144.821 11.5909 144.646 12.0455C144.472 12.5 144.385 13.0303 144.385 13.6364ZM155.135 18.1932C154.582 18.1932 154.082 18.0909 153.635 17.8864C153.188 17.678 152.834 17.3769 152.572 16.983C152.315 16.589 152.186 16.1061 152.186 15.5341C152.186 15.0417 152.281 14.6364 152.47 14.3182C152.66 14 152.915 13.7481 153.237 13.5625C153.559 13.3769 153.919 13.2367 154.317 13.142C154.714 13.0473 155.12 12.9754 155.533 12.9261C156.055 12.8655 156.48 12.8163 156.805 12.7784C157.131 12.7367 157.368 12.6705 157.516 12.5795C157.663 12.4886 157.737 12.3409 157.737 12.1364V12.0966C157.737 11.6004 157.597 11.2159 157.317 10.9432C157.04 10.6705 156.627 10.5341 156.078 10.5341C155.506 10.5341 155.055 10.661 154.726 10.9148C154.4 11.1648 154.175 11.4432 154.05 11.75L152.453 11.3864C152.643 10.8561 152.919 10.428 153.283 10.1023C153.65 9.77273 154.072 9.53409 154.55 9.38636C155.027 9.23485 155.529 9.15909 156.055 9.15909C156.404 9.15909 156.773 9.20076 157.163 9.28409C157.557 9.36364 157.925 9.51136 158.266 9.72727C158.61 9.94318 158.893 10.2519 159.112 10.6534C159.332 11.0511 159.442 11.5682 159.442 12.2045V18H157.783V16.8068H157.714C157.605 17.0265 157.44 17.2424 157.22 17.4545C157 17.6667 156.718 17.8428 156.374 17.983C156.029 18.1231 155.616 18.1932 155.135 18.1932ZM155.504 16.8295C155.974 16.8295 156.375 16.7367 156.709 16.5511C157.046 16.3655 157.302 16.1231 157.476 15.8239C157.654 15.5208 157.743 15.197 157.743 14.8523V13.7273C157.682 13.7879 157.565 13.8447 157.391 13.8977C157.22 13.947 157.025 13.9905 156.805 14.0284C156.586 14.0625 156.372 14.0947 156.163 14.125C155.955 14.1515 155.781 14.1742 155.641 14.1932C155.311 14.2348 155.01 14.3049 154.737 14.4034C154.468 14.5019 154.252 14.6439 154.089 14.8295C153.93 15.0114 153.851 15.2538 153.851 15.5568C153.851 15.9773 154.006 16.2955 154.317 16.5114C154.627 16.7235 155.023 16.8295 155.504 16.8295ZM162.466 21.2727C162.212 21.2727 161.981 21.2519 161.773 21.2102C161.564 21.1723 161.409 21.1307 161.307 21.0852L161.716 19.6932C162.027 19.7765 162.303 19.8125 162.545 19.8011C162.788 19.7898 163.002 19.6989 163.188 19.5284C163.377 19.358 163.544 19.0795 163.688 18.6932L163.898 18.1136L160.705 9.27273H162.523L164.733 16.0455H164.824L167.034 9.27273H168.858L165.261 19.1648C165.095 19.6193 164.883 20.0038 164.625 20.3182C164.367 20.6364 164.061 20.875 163.705 21.0341C163.348 21.1932 162.936 21.2727 162.466 21.2727ZM171.027 18.108C170.716 18.108 170.449 17.9981 170.226 17.7784C170.002 17.5549 169.891 17.286 169.891 16.9716C169.891 16.661 170.002 16.3958 170.226 16.1761C170.449 15.9527 170.716 15.8409 171.027 15.8409C171.338 15.8409 171.605 15.9527 171.828 16.1761C172.052 16.3958 172.163 16.661 172.163 16.9716C172.163 17.1799 172.11 17.3712 172.004 17.5455C171.902 17.7159 171.766 17.8523 171.595 17.9545C171.425 18.0568 171.235 18.108 171.027 18.108ZM179.967 14.3807V9.27273H181.672V18H180.001V16.4886H179.911C179.71 16.9545 179.388 17.3428 178.945 17.6534C178.505 17.9602 177.958 18.1136 177.303 18.1136C176.742 18.1136 176.246 17.9905 175.814 17.7443C175.386 17.4943 175.049 17.125 174.803 16.6364C174.56 16.1477 174.439 15.5436 174.439 14.8239V9.27273H176.138V14.6193C176.138 15.214 176.303 15.6875 176.632 16.0398C176.962 16.392 177.39 16.5682 177.916 16.5682C178.234 16.5682 178.551 16.4886 178.865 16.3295C179.183 16.1705 179.446 15.9299 179.655 15.608C179.867 15.286 179.971 14.8769 179.967 14.3807ZM183.773 18V16.8352L188.5 10.8295V10.75H183.926V9.27273H190.619V10.5114L186.074 16.4432V16.5227H190.778V18H183.773Z" fill="#344051"/>
<path d="M10.7026 57.1307C12.0871 57.8275 13.7097 58.3358 15.6047 58.5679C16.1781 58.6382 16.6667 58.1777 16.6667 57.6001V56.1141C16.6667 55.6553 16.3544 55.2553 15.9092 55.144L13.8826 54.6374C13.5418 54.5522 13.1814 54.652 12.933 54.9004L10.7026 57.1307ZM10.7026 57.1307C8.10624 55.824 6.34755 53.8542 5.20097 51.7991M5.20097 51.7991C4.14691 49.9097 3.61018 47.9483 3.41555 46.3636C3.34663 45.8025 3.80188 45.3334 4.36722 45.3334H5.84687C6.32355 45.3334 6.73396 45.6698 6.82745 46.1373L7.39504 48.9752C7.46062 49.3031 7.35799 49.642 7.12157 49.8785L5.20097 51.7991Z" stroke="#97A1AF" stroke-width="1.5"/>
<path d="M32.5625 56.0455V48.3636H34.0909V56.0455H32.5625ZM29.4886 52.9659V51.4432H37.1705V52.9659H29.4886ZM43.6449 46.2045C44.1638 46.2083 44.6752 46.303 45.179 46.4886C45.6828 46.6742 46.1373 46.9773 46.5426 47.3977C46.9517 47.8182 47.2775 48.3864 47.5199 49.1023C47.7661 49.8144 47.8911 50.7008 47.8949 51.7614C47.8949 52.7803 47.7926 53.6875 47.5881 54.483C47.3835 55.2746 47.09 55.9432 46.7074 56.4886C46.3286 57.0341 45.8684 57.4489 45.3267 57.733C44.785 58.017 44.1752 58.1591 43.4972 58.1591C42.804 58.1591 42.1884 58.0227 41.6506 57.75C41.1127 57.4773 40.6752 57.1004 40.3381 56.6193C40.0009 56.1345 39.7907 55.5777 39.7074 54.9489H41.4403C41.554 55.4489 41.785 55.8542 42.1335 56.1648C42.4858 56.4716 42.9403 56.625 43.4972 56.625C44.3494 56.625 45.0142 56.2538 45.4915 55.5114C45.9688 54.7652 46.2093 53.7235 46.2131 52.3864H46.1222C45.9252 52.7121 45.679 52.9924 45.3835 53.2273C45.0919 53.4621 44.7642 53.6439 44.4006 53.7727C44.0369 53.9015 43.6487 53.9659 43.2358 53.9659C42.5653 53.9659 41.9555 53.8011 41.4062 53.4716C40.857 53.142 40.4195 52.6894 40.0938 52.1136C39.768 51.5379 39.6051 50.8807 39.6051 50.142C39.6051 49.4072 39.7718 48.7405 40.1051 48.142C40.4422 47.5436 40.9119 47.0701 41.5142 46.7216C42.1203 46.3693 42.8305 46.197 43.6449 46.2045ZM43.6506 47.6818C43.2074 47.6818 42.8078 47.7917 42.4517 48.0114C42.0994 48.2273 41.821 48.5208 41.6165 48.892C41.4119 49.2595 41.3097 49.6686 41.3097 50.1193C41.3097 50.5701 41.4081 50.9792 41.6051 51.3466C41.8059 51.7102 42.0786 52 42.4233 52.2159C42.7718 52.428 43.1695 52.5341 43.6165 52.5341C43.9498 52.5341 44.2604 52.4697 44.5483 52.3409C44.8362 52.2121 45.0881 52.0341 45.304 51.8068C45.5199 51.5758 45.6884 51.3144 45.8097 51.0227C45.9309 50.7311 45.9915 50.4242 45.9915 50.1023C45.9915 49.6742 45.8892 49.2765 45.6847 48.9091C45.4839 48.5417 45.2074 48.2462 44.8551 48.0227C44.5028 47.7955 44.1013 47.6818 43.6506 47.6818ZM53.8168 46.2045C54.3357 46.2083 54.8471 46.303 55.3509 46.4886C55.8546 46.6742 56.3092 46.9773 56.7145 47.3977C57.1236 47.8182 57.4493 48.3864 57.6918 49.1023C57.938 49.8144 58.063 50.7008 58.0668 51.7614C58.0668 52.7803 57.9645 53.6875 57.7599 54.483C57.5554 55.2746 57.2618 55.9432 56.8793 56.4886C56.5005 57.0341 56.0402 57.4489 55.4986 57.733C54.9569 58.017 54.3471 58.1591 53.669 58.1591C52.9759 58.1591 52.3603 58.0227 51.8224 57.75C51.2846 57.4773 50.8471 57.1004 50.5099 56.6193C50.1728 56.1345 49.9626 55.5777 49.8793 54.9489H51.6122C51.7259 55.4489 51.9569 55.8542 52.3054 56.1648C52.6577 56.4716 53.1122 56.625 53.669 56.625C54.5213 56.625 55.1861 56.2538 55.6634 55.5114C56.1406 54.7652 56.3812 53.7235 56.3849 52.3864H56.294C56.0971 52.7121 55.8509 52.9924 55.5554 53.2273C55.2637 53.4621 54.9361 53.6439 54.5724 53.7727C54.2088 53.9015 53.8205 53.9659 53.4077 53.9659C52.7372 53.9659 52.1274 53.8011 51.5781 53.4716C51.0289 53.142 50.5914 52.6894 50.2656 52.1136C49.9399 51.5379 49.777 50.8807 49.777 50.142C49.777 49.4072 49.9437 48.7405 50.277 48.142C50.6141 47.5436 51.0838 47.0701 51.6861 46.7216C52.2921 46.3693 53.0024 46.197 53.8168 46.2045ZM53.8224 47.6818C53.3793 47.6818 52.9796 47.7917 52.6236 48.0114C52.2713 48.2273 51.9929 48.5208 51.7884 48.892C51.5838 49.2595 51.4815 49.6686 51.4815 50.1193C51.4815 50.5701 51.58 50.9792 51.777 51.3466C51.9777 51.7102 52.2505 52 52.5952 52.2159C52.9437 52.428 53.3414 52.5341 53.7884 52.5341C54.1217 52.5341 54.4323 52.4697 54.7202 52.3409C55.008 52.2121 55.2599 52.0341 55.4759 51.8068C55.6918 51.5758 55.8603 51.3144 55.9815 51.0227C56.1027 50.7311 56.1634 50.4242 56.1634 50.1023C56.1634 49.6742 56.0611 49.2765 55.8565 48.9091C55.6558 48.5417 55.3793 48.2462 55.027 48.0227C54.6747 47.7955 54.2732 47.6818 53.8224 47.6818ZM64.0511 58.1591C63.2367 58.1591 62.517 58.0189 61.892 57.7386C61.2708 57.4583 60.7841 57.072 60.4318 56.5795C60.0795 56.0871 59.9053 55.5265 59.9091 54.8977C59.9053 54.4053 60.0057 53.9527 60.2102 53.5398C60.4186 53.1231 60.7008 52.7765 61.0568 52.5C61.4129 52.2197 61.8106 52.0417 62.25 51.9659V51.8977C61.6705 51.7576 61.2064 51.447 60.858 50.9659C60.5095 50.4848 60.3371 49.9318 60.3409 49.3068C60.3371 48.7121 60.4943 48.1818 60.8125 47.7159C61.1345 47.2462 61.5758 46.8769 62.1364 46.608C62.697 46.339 63.3352 46.2045 64.0511 46.2045C64.7595 46.2045 65.392 46.3409 65.9489 46.6136C66.5095 46.8826 66.9508 47.2519 67.2727 47.7216C67.5947 48.1875 67.7576 48.7159 67.7614 49.3068C67.7576 49.9318 67.5795 50.4848 67.2273 50.9659C66.875 51.447 66.4167 51.7576 65.8523 51.8977V51.9659C66.2879 52.0417 66.6799 52.2197 67.0284 52.5C67.3807 52.7765 67.661 53.1231 67.8693 53.5398C68.0814 53.9527 68.1894 54.4053 68.1932 54.8977C68.1894 55.5265 68.0114 56.0871 67.6591 56.5795C67.3068 57.072 66.8182 57.4583 66.1932 57.7386C65.572 58.0189 64.858 58.1591 64.0511 58.1591ZM64.0511 56.7216C64.5322 56.7216 64.9489 56.642 65.3011 56.483C65.6534 56.3201 65.9261 56.0947 66.1193 55.8068C66.3125 55.5152 66.411 55.1742 66.4148 54.7841C66.411 54.3788 66.3049 54.0208 66.0966 53.7102C65.892 53.3996 65.6136 53.1553 65.2614 52.9773C64.9091 52.7992 64.5057 52.7102 64.0511 52.7102C63.5928 52.7102 63.1856 52.7992 62.8295 52.9773C62.4735 53.1553 62.1932 53.3996 61.9886 53.7102C61.7841 54.0208 61.6837 54.3788 61.6875 54.7841C61.6837 55.1742 61.7765 55.5152 61.9659 55.8068C62.1591 56.0947 62.4337 56.3201 62.7898 56.483C63.1458 56.642 63.5663 56.7216 64.0511 56.7216ZM64.0511 51.3068C64.4375 51.3068 64.7803 51.2292 65.0795 51.0739C65.3788 50.9186 65.6136 50.7027 65.7841 50.4261C65.9583 50.1496 66.0473 49.8258 66.0511 49.4545C66.0473 49.0909 65.9602 48.7727 65.7898 48.5C65.6231 48.2273 65.3902 48.017 65.0909 47.8693C64.7917 47.7178 64.4451 47.642 64.0511 47.642C63.6496 47.642 63.2973 47.7178 62.9943 47.8693C62.6951 48.017 62.4621 48.2273 62.2955 48.5C62.1288 48.7727 62.0473 49.0909 62.0511 49.4545C62.0473 49.8258 62.1307 50.1496 62.3011 50.4261C62.4716 50.7027 62.7064 50.9186 63.0057 51.0739C63.3087 51.2292 63.6572 51.3068 64.0511 51.3068ZM74.098 46.2045C74.617 46.2083 75.1283 46.303 75.6321 46.4886C76.1359 46.6742 76.5904 46.9773 76.9957 47.3977C77.4048 47.8182 77.7306 48.3864 77.973 49.1023C78.2192 49.8144 78.3442 50.7008 78.348 51.7614C78.348 52.7803 78.2457 53.6875 78.0412 54.483C77.8366 55.2746 77.5431 55.9432 77.1605 56.4886C76.7817 57.0341 76.3215 57.4489 75.7798 57.733C75.2382 58.017 74.6283 58.1591 73.9503 58.1591C73.2571 58.1591 72.6416 58.0227 72.1037 57.75C71.5658 57.4773 71.1283 57.1004 70.7912 56.6193C70.4541 56.1345 70.2438 55.5777 70.1605 54.9489H71.8935C72.0071 55.4489 72.2382 55.8542 72.5866 56.1648C72.9389 56.4716 73.3935 56.625 73.9503 56.625C74.8026 56.625 75.4673 56.2538 75.9446 55.5114C76.4219 54.7652 76.6624 53.7235 76.6662 52.3864H76.5753C76.3783 52.7121 76.1321 52.9924 75.8366 53.2273C75.545 53.4621 75.2173 53.6439 74.8537 53.7727C74.4901 53.9015 74.1018 53.9659 73.6889 53.9659C73.0185 53.9659 72.4086 53.8011 71.8594 53.4716C71.3101 53.142 70.8726 52.6894 70.5469 52.1136C70.2211 51.5379 70.0582 50.8807 70.0582 50.142C70.0582 49.4072 70.2249 48.7405 70.5582 48.142C70.8954 47.5436 71.3651 47.0701 71.9673 46.7216C72.5734 46.3693 73.2836 46.197 74.098 46.2045ZM74.1037 47.6818C73.6605 47.6818 73.2609 47.7917 72.9048 48.0114C72.5526 48.2273 72.2741 48.5208 72.0696 48.892C71.8651 49.2595 71.7628 49.6686 71.7628 50.1193C71.7628 50.5701 71.8613 50.9792 72.0582 51.3466C72.259 51.7102 72.5317 52 72.8764 52.2159C73.2249 52.428 73.6226 52.5341 74.0696 52.5341C74.4029 52.5341 74.7135 52.4697 75.0014 52.3409C75.2893 52.2121 75.5412 52.0341 75.7571 51.8068C75.973 51.5758 76.1416 51.3144 76.2628 51.0227C76.384 50.7311 76.4446 50.4242 76.4446 50.1023C76.4446 49.6742 76.3423 49.2765 76.1378 48.9091C75.937 48.5417 75.6605 48.2462 75.3082 48.0227C74.956 47.7955 74.5545 47.6818 74.1037 47.6818ZM84.4517 58.1591C83.6714 58.1591 82.9744 58.0246 82.3608 57.7557C81.7509 57.4867 81.268 57.1136 80.9119 56.6364C80.5597 56.1553 80.3703 55.5985 80.3438 54.9659H82.1278C82.1506 55.3106 82.2661 55.6098 82.4744 55.8636C82.6866 56.1136 82.9631 56.3068 83.304 56.4432C83.6449 56.5795 84.0237 56.6477 84.4403 56.6477C84.8987 56.6477 85.304 56.5682 85.6562 56.4091C86.0123 56.25 86.2907 56.0284 86.4915 55.7443C86.6922 55.4564 86.7926 55.125 86.7926 54.75C86.7926 54.3598 86.6922 54.017 86.4915 53.7216C86.2945 53.4223 86.0047 53.1875 85.6222 53.017C85.2434 52.8466 84.785 52.7614 84.2472 52.7614H83.2642V51.3295H84.2472C84.679 51.3295 85.0578 51.2519 85.3835 51.0966C85.7131 50.9413 85.9706 50.7254 86.1562 50.4489C86.3419 50.1686 86.4347 49.8409 86.4347 49.4659C86.4347 49.1061 86.3532 48.7936 86.1903 48.5284C86.0313 48.2595 85.804 48.0492 85.5085 47.8977C85.2169 47.7462 84.8722 47.6705 84.4744 47.6705C84.0956 47.6705 83.7415 47.7405 83.4119 47.8807C83.0862 48.017 82.821 48.214 82.6165 48.4716C82.4119 48.7254 82.3021 49.0303 82.2869 49.3864H80.5881C80.607 48.7576 80.7926 48.2045 81.1449 47.7273C81.5009 47.25 81.9706 46.8769 82.554 46.608C83.1373 46.339 83.785 46.2045 84.4972 46.2045C85.2434 46.2045 85.8873 46.3504 86.429 46.642C86.9744 46.9299 87.3949 47.3144 87.6903 47.7955C87.9896 48.2765 88.1373 48.803 88.1335 49.375C88.1373 50.0265 87.9555 50.5795 87.5881 51.0341C87.2244 51.4886 86.7396 51.7936 86.1335 51.9489V52.0398C86.9063 52.1572 87.5047 52.464 87.929 52.9602C88.357 53.4564 88.5691 54.072 88.5653 54.8068C88.5691 55.447 88.3911 56.0208 88.0312 56.5284C87.6752 57.036 87.1884 57.4356 86.571 57.7273C85.9536 58.0152 85.2472 58.1591 84.4517 58.1591ZM98.7884 58.1591C98.0762 58.1591 97.4361 58.0227 96.8679 57.75C96.3035 57.4735 95.8527 57.0947 95.5156 56.6136C95.1785 56.1326 94.9986 55.5833 94.9759 54.9659H96.6804C96.7221 55.4659 96.9437 55.8769 97.3452 56.1989C97.7467 56.5208 98.2277 56.6818 98.7884 56.6818C99.2353 56.6818 99.6312 56.5795 99.9759 56.375C100.324 56.1667 100.597 55.8807 100.794 55.517C100.995 55.1534 101.095 54.7386 101.095 54.2727C101.095 53.7992 100.993 53.3769 100.788 53.0057C100.584 52.6345 100.302 52.3428 99.9418 52.1307C99.5857 51.9186 99.1766 51.8106 98.7145 51.8068C98.3622 51.8068 98.008 51.8674 97.652 51.9886C97.2959 52.1098 97.008 52.2689 96.7884 52.4659L95.1804 52.2273L95.8338 46.3636H102.232V47.8693H97.294L96.9247 51.125H96.9929C97.2202 50.9053 97.5213 50.7216 97.8963 50.5739C98.2751 50.4261 98.6804 50.3523 99.1122 50.3523C99.8205 50.3523 100.451 50.5208 101.004 50.858C101.561 51.1951 101.999 51.6553 102.317 52.2386C102.639 52.8182 102.798 53.4848 102.794 54.2386C102.798 54.9924 102.627 55.6648 102.283 56.2557C101.942 56.8466 101.468 57.3125 100.862 57.6534C100.26 57.9905 99.5687 58.1591 98.7884 58.1591ZM108.92 58.1932C108.023 58.1894 107.256 57.9527 106.619 57.483C105.983 57.0133 105.496 56.3295 105.159 55.4318C104.822 54.5341 104.653 53.4527 104.653 52.1875C104.653 50.9261 104.822 49.8485 105.159 48.9545C105.5 48.0606 105.989 47.3788 106.625 46.9091C107.265 46.4394 108.03 46.2045 108.92 46.2045C109.811 46.2045 110.574 46.4413 111.21 46.9148C111.847 47.3845 112.333 48.0663 112.67 48.9602C113.011 49.8504 113.182 50.9261 113.182 52.1875C113.182 53.4564 113.013 54.5398 112.676 55.4375C112.339 56.3314 111.852 57.0152 111.216 57.4886C110.58 57.9583 109.814 58.1932 108.92 58.1932ZM108.92 56.6761C109.708 56.6761 110.324 56.2917 110.767 55.5227C111.214 54.7538 111.438 53.642 111.438 52.1875C111.438 51.2216 111.335 50.4053 111.131 49.7386C110.93 49.0682 110.64 48.5606 110.261 48.2159C109.886 47.8674 109.439 47.6932 108.92 47.6932C108.136 47.6932 107.521 48.0795 107.074 48.8523C106.627 49.625 106.402 50.7367 106.398 52.1875C106.398 53.1572 106.498 53.9773 106.699 54.6477C106.903 55.3144 107.193 55.8201 107.568 56.1648C107.943 56.5057 108.394 56.6761 108.92 56.6761ZM119.249 58.1591C118.468 58.1591 117.771 58.0246 117.158 57.7557C116.548 57.4867 116.065 57.1136 115.709 56.6364C115.357 56.1553 115.167 55.5985 115.141 54.9659H116.925C116.947 55.3106 117.063 55.6098 117.271 55.8636C117.483 56.1136 117.76 56.3068 118.101 56.4432C118.442 56.5795 118.821 56.6477 119.237 56.6477C119.696 56.6477 120.101 56.5682 120.453 56.4091C120.809 56.25 121.088 56.0284 121.288 55.7443C121.489 55.4564 121.589 55.125 121.589 54.75C121.589 54.3598 121.489 54.017 121.288 53.7216C121.091 53.4223 120.802 53.1875 120.419 53.017C120.04 52.8466 119.582 52.7614 119.044 52.7614H118.061V51.3295H119.044C119.476 51.3295 119.855 51.2519 120.18 51.0966C120.51 50.9413 120.768 50.7254 120.953 50.4489C121.139 50.1686 121.232 49.8409 121.232 49.4659C121.232 49.1061 121.15 48.7936 120.987 48.5284C120.828 48.2595 120.601 48.0492 120.305 47.8977C120.014 47.7462 119.669 47.6705 119.271 47.6705C118.893 47.6705 118.538 47.7405 118.209 47.8807C117.883 48.017 117.618 48.214 117.413 48.4716C117.209 48.7254 117.099 49.0303 117.084 49.3864H115.385C115.404 48.7576 115.589 48.2045 115.942 47.7273C116.298 47.25 116.768 46.8769 117.351 46.608C117.934 46.339 118.582 46.2045 119.294 46.2045C120.04 46.2045 120.684 46.3504 121.226 46.642C121.771 46.9299 122.192 47.3144 122.487 47.7955C122.786 48.2765 122.934 48.803 122.93 49.375C122.934 50.0265 122.752 50.5795 122.385 51.0341C122.021 51.4886 121.536 51.7936 120.93 51.9489V52.0398C121.703 52.1572 122.302 52.464 122.726 52.9602C123.154 53.4564 123.366 54.072 123.362 54.8068C123.366 55.447 123.188 56.0208 122.828 56.5284C122.472 57.036 121.985 57.4356 121.368 57.7273C120.75 58.0152 120.044 58.1591 119.249 58.1591ZM129.5 55.7273V54.3068L134.528 46.3636H135.648V48.4545H134.938L131.341 54.1477V54.2386H138.233V55.7273H129.5ZM135.017 58V55.2955L135.028 54.6477V46.3636H136.693V58H135.017ZM144.264 58.1932C143.366 58.1894 142.599 57.9527 141.963 57.483C141.327 57.0133 140.84 56.3295 140.503 55.4318C140.166 54.5341 139.997 53.4527 139.997 52.1875C139.997 50.9261 140.166 49.8485 140.503 48.9545C140.844 48.0606 141.332 47.3788 141.969 46.9091C142.609 46.4394 143.374 46.2045 144.264 46.2045C145.154 46.2045 145.918 46.4413 146.554 46.9148C147.19 47.3845 147.677 48.0663 148.014 48.9602C148.355 49.8504 148.526 50.9261 148.526 52.1875C148.526 53.4564 148.357 54.5398 148.02 55.4375C147.683 56.3314 147.196 57.0152 146.56 57.4886C145.923 57.9583 145.158 58.1932 144.264 58.1932ZM144.264 56.6761C145.052 56.6761 145.668 56.2917 146.111 55.5227C146.558 54.7538 146.781 53.642 146.781 52.1875C146.781 51.2216 146.679 50.4053 146.474 49.7386C146.274 49.0682 145.984 48.5606 145.605 48.2159C145.23 47.8674 144.783 47.6932 144.264 47.6932C143.48 47.6932 142.865 48.0795 142.418 48.8523C141.971 49.625 141.745 50.7367 141.741 52.1875C141.741 53.1572 141.842 53.9773 142.043 54.6477C142.247 55.3144 142.537 55.8201 142.912 56.1648C143.287 56.5057 143.738 56.6761 144.264 56.6761ZM158.827 58.1932C157.929 58.1894 157.162 57.9527 156.526 57.483C155.889 57.0133 155.402 56.3295 155.065 55.4318C154.728 54.5341 154.56 53.4527 154.56 52.1875C154.56 50.9261 154.728 49.8485 155.065 48.9545C155.406 48.0606 155.895 47.3788 156.531 46.9091C157.171 46.4394 157.937 46.2045 158.827 46.2045C159.717 46.2045 160.48 46.4413 161.116 46.9148C161.753 47.3845 162.24 48.0663 162.577 48.9602C162.918 49.8504 163.088 50.9261 163.088 52.1875C163.088 53.4564 162.92 54.5398 162.582 55.4375C162.245 56.3314 161.759 57.0152 161.122 57.4886C160.486 57.9583 159.721 58.1932 158.827 58.1932ZM158.827 56.6761C159.615 56.6761 160.23 56.2917 160.673 55.5227C161.12 54.7538 161.344 53.642 161.344 52.1875C161.344 51.2216 161.241 50.4053 161.037 49.7386C160.836 49.0682 160.546 48.5606 160.168 48.2159C159.793 47.8674 159.346 47.6932 158.827 47.6932C158.043 47.6932 157.427 48.0795 156.98 48.8523C156.533 49.625 156.308 50.7367 156.304 52.1875C156.304 53.1572 156.404 53.9773 156.605 54.6477C156.81 55.3144 157.099 55.8201 157.474 56.1648C157.849 56.5057 158.3 56.6761 158.827 56.6761ZM169.155 58.1932C168.257 58.1894 167.49 57.9527 166.854 57.483C166.217 57.0133 165.731 56.3295 165.393 55.4318C165.056 54.5341 164.888 53.4527 164.888 52.1875C164.888 50.9261 165.056 49.8485 165.393 48.9545C165.734 48.0606 166.223 47.3788 166.859 46.9091C167.5 46.4394 168.265 46.2045 169.155 46.2045C170.045 46.2045 170.808 46.4413 171.445 46.9148C172.081 47.3845 172.568 48.0663 172.905 48.9602C173.246 49.8504 173.416 50.9261 173.416 52.1875C173.416 53.4564 173.248 54.5398 172.911 55.4375C172.573 56.3314 172.087 57.0152 171.45 57.4886C170.814 57.9583 170.049 58.1932 169.155 58.1932ZM169.155 56.6761C169.943 56.6761 170.558 56.2917 171.001 55.5227C171.448 54.7538 171.672 53.642 171.672 52.1875C171.672 51.2216 171.57 50.4053 171.365 49.7386C171.164 49.0682 170.875 48.5606 170.496 48.2159C170.121 47.8674 169.674 47.6932 169.155 47.6932C168.371 47.6932 167.755 48.0795 167.308 48.8523C166.861 49.625 166.636 50.7367 166.632 52.1875C166.632 53.1572 166.732 53.9773 166.933 54.6477C167.138 55.3144 167.428 55.8201 167.803 56.1648C168.178 56.5057 168.628 56.6761 169.155 56.6761Z" fill="#344051"/>
<path d="M12.5 102.333C12.5 103.714 11.3807 104.833 10 104.833C8.61929 104.833 7.5 103.714 7.5 102.333C7.5 100.953 8.61929 99.8333 10 99.8333C11.3807 99.8333 12.5 100.953 12.5 102.333Z" stroke="#97A1AF" stroke-width="1.5" stroke-linecap="round" stroke-linejoin="round"/>
<path d="M15.8333 102.125C15.8333 106.812 10 111.5 10 111.5C10 111.5 4.16666 106.812 4.16666 102.125C4.16666 99.0184 6.77834 96.5 10 96.5C13.2217 96.5 15.8333 99.0184 15.8333 102.125Z" stroke="#97A1AF" stroke-width="1.5" stroke-linecap="round" stroke-linejoin="round"/>
<path d="M34.7216 89.2727V90.7386H30.8182V98H29.142V89.2727H34.7216ZM36.1832 98.108C35.8726 98.108 35.6056 97.9981 35.3821 97.7784C35.1586 97.5549 35.0469 97.286 35.0469 96.9716C35.0469 96.661 35.1586 96.3958 35.3821 96.1761C35.6056 95.9527 35.8726 95.8409 36.1832 95.8409C36.4938 95.8409 36.7609 95.9527 36.9844 96.1761C37.2079 96.3958 37.3196 96.661 37.3196 96.9716C37.3196 97.1799 37.2666 97.3712 37.1605 97.5455C37.0582 97.7159 36.9219 97.8523 36.7514 97.9545C36.581 98.0568 36.3916 98.108 36.1832 98.108ZM38.6108 87.875V86.3636H47.6165V87.875H43.9858V98H42.2358V87.875H38.6108ZM50.8224 98.1932C50.2694 98.1932 49.7694 98.0909 49.3224 97.8864C48.8755 97.678 48.5213 97.3769 48.2599 96.983C48.0024 96.589 47.8736 96.1061 47.8736 95.5341C47.8736 95.0417 47.9683 94.6364 48.1577 94.3182C48.3471 94 48.6027 93.7481 48.9247 93.5625C49.2467 93.3769 49.6065 93.2367 50.0043 93.142C50.402 93.0473 50.8073 92.9754 51.2202 92.9261C51.7429 92.8655 52.1671 92.8163 52.4929 92.7784C52.8187 92.7367 53.0554 92.6705 53.2031 92.5795C53.3509 92.4886 53.4247 92.3409 53.4247 92.1364V92.0966C53.4247 91.6004 53.2846 91.2159 53.0043 90.9432C52.7277 90.6705 52.3149 90.5341 51.7656 90.5341C51.1937 90.5341 50.7429 90.661 50.4134 90.9148C50.0876 91.1648 49.8622 91.4432 49.7372 91.75L48.1406 91.3864C48.33 90.8561 48.6065 90.428 48.9702 90.1023C49.3376 89.7727 49.7599 89.5341 50.2372 89.3864C50.7145 89.2348 51.2164 89.1591 51.7429 89.1591C52.0914 89.1591 52.4607 89.2008 52.8509 89.2841C53.2448 89.3636 53.6122 89.5114 53.9531 89.7273C54.2978 89.9432 54.58 90.2519 54.7997 90.6534C55.0194 91.0511 55.1293 91.5682 55.1293 92.2045V98H53.4702V96.8068H53.402C53.2921 97.0265 53.1274 97.2424 52.9077 97.4545C52.688 97.6667 52.4058 97.8428 52.0611 97.983C51.7164 98.1231 51.3035 98.1932 50.8224 98.1932ZM51.1918 96.8295C51.6615 96.8295 52.063 96.7367 52.3963 96.5511C52.7334 96.3655 52.9891 96.1231 53.1634 95.8239C53.3414 95.5208 53.4304 95.197 53.4304 94.8523V93.7273C53.3698 93.7879 53.2524 93.8447 53.0781 93.8977C52.9077 93.947 52.7126 93.9905 52.4929 94.0284C52.2732 94.0625 52.0592 94.0947 51.8509 94.125C51.6425 94.1515 51.4683 94.1742 51.3281 94.1932C50.9986 94.2348 50.6974 94.3049 50.4247 94.4034C50.1558 94.5019 49.9399 94.6439 49.777 94.8295C49.6179 95.0114 49.5384 95.2538 49.5384 95.5568C49.5384 95.9773 49.6937 96.2955 50.0043 96.5114C50.3149 96.7235 50.7107 96.8295 51.1918 96.8295ZM57.392 89.2727H59.0568V96.5284H62.0739V89.2727H63.7386V96.5284H66.7557V89.2727H68.4205V98H57.392V89.2727ZM70.6889 98V89.2727H72.3878V92.9318H73.206L76.0866 89.2727H78.1889L74.8082 93.517L78.2287 98H76.1207L73.4901 94.5114H72.3878V98H70.6889ZM82.9503 98.1761C82.0904 98.1761 81.3499 97.9924 80.7287 97.625C80.1113 97.2538 79.634 96.733 79.2969 96.0625C78.9635 95.3883 78.7969 94.5985 78.7969 93.6932C78.7969 92.7992 78.9635 92.0114 79.2969 91.3295C79.634 90.6477 80.1037 90.1155 80.706 89.733C81.312 89.3504 82.0204 89.1591 82.831 89.1591C83.3234 89.1591 83.8007 89.2405 84.2628 89.4034C84.7249 89.5663 85.1397 89.822 85.5071 90.1705C85.8745 90.5189 86.1643 90.9716 86.3764 91.5284C86.5885 92.0814 86.6946 92.7538 86.6946 93.5455V94.1477H79.7571V92.875H85.0298C85.0298 92.428 84.9389 92.0322 84.7571 91.6875C84.5753 91.339 84.3196 91.0644 83.9901 90.8636C83.6643 90.6629 83.2817 90.5625 82.8423 90.5625C82.3651 90.5625 81.9484 90.6799 81.5923 90.9148C81.2401 91.1458 80.9673 91.4489 80.7741 91.8239C80.5848 92.1951 80.4901 92.5985 80.4901 93.0341V94.0284C80.4901 94.6117 80.5923 95.108 80.7969 95.517C81.0052 95.9261 81.295 96.2386 81.6662 96.4545C82.0374 96.6667 82.4711 96.7727 82.9673 96.7727C83.2893 96.7727 83.5829 96.7273 83.848 96.6364C84.1132 96.5417 84.3423 96.4015 84.5355 96.2159C84.7287 96.0303 84.8764 95.8011 84.9787 95.5284L86.5866 95.8182C86.4579 96.2917 86.2268 96.7064 85.8935 97.0625C85.5639 97.4148 85.1491 97.6894 84.6491 97.8864C84.1529 98.0795 83.5866 98.1761 82.9503 98.1761ZM94.4943 92.9034V94.375H89.767V92.9034H94.4943ZM90.2443 89.2727V98H88.5795V89.2727H90.2443ZM95.6818 89.2727V98H94.0227V89.2727H95.6818ZM96.8722 90.7386V89.2727H104.236V90.7386H101.389V98H99.7301V90.7386H96.8722ZM106.884 96.4091L106.798 97.0284C106.741 97.483 106.645 97.9564 106.509 98.4489C106.376 98.9451 106.238 99.4053 106.094 99.8295C105.954 100.254 105.838 100.591 105.747 100.841H104.543C104.592 100.606 104.66 100.288 104.747 99.8864C104.834 99.4886 104.92 99.0436 105.003 98.5511C105.086 98.0587 105.149 97.5568 105.19 97.0455L105.247 96.4091H106.884ZM121.716 98H119.955V87.8693H117.75C117.174 87.8693 116.706 87.9564 116.347 88.1307C115.987 88.3011 115.723 88.5473 115.557 88.8693C115.39 89.1913 115.307 89.572 115.307 90.0114C115.307 90.447 115.39 90.8201 115.557 91.1307C115.723 91.4413 115.985 91.678 116.341 91.8409C116.697 92.0038 117.161 92.0852 117.733 92.0852H120.716V93.5966H117.568C116.67 93.5966 115.922 93.447 115.324 93.1477C114.729 92.8485 114.282 92.4299 113.983 91.892C113.688 91.3504 113.54 90.7235 113.54 90.0114C113.54 89.2955 113.688 88.6648 113.983 88.1193C114.278 87.5701 114.723 87.1402 115.318 86.8295C115.917 86.5189 116.665 86.3636 117.562 86.3636H121.716V98ZM115.972 92.75H117.915L115.091 98H113.097L115.972 92.75ZM124.142 98V89.2727H125.841V92.9318H126.659L129.54 89.2727H131.642L128.261 93.517L131.682 98H129.574L126.943 94.5114H125.841V98H124.142ZM133.001 98V89.2727H134.7V92.9318H135.518L138.399 89.2727H140.501L137.121 93.517L140.541 98H138.433L135.803 94.5114H134.7V98H133.001ZM144.401 98.1932C143.848 98.1932 143.348 98.0909 142.901 97.8864C142.454 97.678 142.099 97.3769 141.838 96.983C141.58 96.589 141.452 96.1061 141.452 95.5341C141.452 95.0417 141.546 94.6364 141.736 94.3182C141.925 94 142.181 93.7481 142.503 93.5625C142.825 93.3769 143.185 93.2367 143.582 93.142C143.98 93.0473 144.385 92.9754 144.798 92.9261C145.321 92.8655 145.745 92.8163 146.071 92.7784C146.397 92.7367 146.634 92.6705 146.781 92.5795C146.929 92.4886 147.003 92.3409 147.003 92.1364V92.0966C147.003 91.6004 146.863 91.2159 146.582 90.9432C146.306 90.6705 145.893 90.5341 145.344 90.5341C144.772 90.5341 144.321 90.661 143.991 90.9148C143.666 91.1648 143.44 91.4432 143.315 91.75L141.719 91.3864C141.908 90.8561 142.185 90.428 142.548 90.1023C142.916 89.7727 143.338 89.5341 143.815 89.3864C144.293 89.2348 144.795 89.1591 145.321 89.1591C145.67 89.1591 146.039 89.2008 146.429 89.2841C146.823 89.3636 147.19 89.5114 147.531 89.7273C147.876 89.9432 148.158 90.2519 148.378 90.6534C148.598 91.0511 148.707 91.5682 148.707 92.2045V98H147.048V96.8068H146.98C146.87 97.0265 146.705 97.2424 146.486 97.4545C146.266 97.6667 145.984 97.8428 145.639 97.983C145.295 98.1231 144.882 98.1932 144.401 98.1932ZM144.77 96.8295C145.24 96.8295 145.641 96.7367 145.974 96.5511C146.312 96.3655 146.567 96.1231 146.741 95.8239C146.92 95.5208 147.009 95.197 147.009 94.8523V93.7273C146.948 93.7879 146.83 93.8447 146.656 93.8977C146.486 93.947 146.291 93.9905 146.071 94.0284C145.851 94.0625 145.637 94.0947 145.429 94.125C145.221 94.1515 145.046 94.1742 144.906 94.1932C144.577 94.2348 144.276 94.3049 144.003 94.4034C143.734 94.5019 143.518 94.6439 143.355 94.8295C143.196 95.0114 143.116 95.2538 143.116 95.5568C143.116 95.9773 143.272 96.2955 143.582 96.5114C143.893 96.7235 144.289 96.8295 144.77 96.8295ZM154.646 98.1761C153.802 98.1761 153.074 97.9848 152.464 97.6023C151.858 97.2159 151.393 96.6837 151.067 96.0057C150.741 95.3277 150.578 94.5511 150.578 93.6761C150.578 92.7898 150.745 92.0076 151.078 91.3295C151.411 90.6477 151.881 90.1155 152.487 89.733C153.093 89.3504 153.807 89.1591 154.629 89.1591C155.292 89.1591 155.883 89.2822 156.402 89.5284C156.921 89.7708 157.339 90.1117 157.658 90.5511C157.98 90.9905 158.171 91.5038 158.232 92.0909H156.578C156.487 91.6818 156.279 91.3295 155.953 91.0341C155.631 90.7386 155.199 90.5909 154.658 90.5909C154.184 90.5909 153.769 90.7159 153.413 90.9659C153.061 91.2121 152.786 91.5644 152.589 92.0227C152.393 92.4773 152.294 93.0152 152.294 93.6364C152.294 94.2727 152.391 94.822 152.584 95.2841C152.777 95.7462 153.05 96.1042 153.402 96.358C153.758 96.6117 154.177 96.7386 154.658 96.7386C154.98 96.7386 155.271 96.6799 155.533 96.5625C155.798 96.4413 156.019 96.2689 156.197 96.0455C156.379 95.822 156.506 95.553 156.578 95.2386H158.232C158.171 95.803 157.987 96.3068 157.68 96.75C157.374 97.1932 156.963 97.5417 156.447 97.7955C155.936 98.0492 155.336 98.1761 154.646 98.1761ZM162.588 98.1932C162.035 98.1932 161.535 98.0909 161.088 97.8864C160.641 97.678 160.287 97.3769 160.026 96.983C159.768 96.589 159.639 96.1061 159.639 95.5341C159.639 95.0417 159.734 94.6364 159.923 94.3182C160.113 94 160.368 93.7481 160.69 93.5625C161.012 93.3769 161.372 93.2367 161.77 93.142C162.168 93.0473 162.573 92.9754 162.986 92.9261C163.509 92.8655 163.933 92.8163 164.259 92.7784C164.584 92.7367 164.821 92.6705 164.969 92.5795C165.116 92.4886 165.19 92.3409 165.19 92.1364V92.0966C165.19 91.6004 165.05 91.2159 164.77 90.9432C164.493 90.6705 164.08 90.5341 163.531 90.5341C162.959 90.5341 162.509 90.661 162.179 90.9148C161.853 91.1648 161.628 91.4432 161.503 91.75L159.906 91.3864C160.096 90.8561 160.372 90.428 160.736 90.1023C161.103 89.7727 161.526 89.5341 162.003 89.3864C162.48 89.2348 162.982 89.1591 163.509 89.1591C163.857 89.1591 164.226 89.2008 164.616 89.2841C165.01 89.3636 165.378 89.5114 165.719 89.7273C166.063 89.9432 166.346 90.2519 166.565 90.6534C166.785 91.0511 166.895 91.5682 166.895 92.2045V98H165.236V96.8068H165.168C165.058 97.0265 164.893 97.2424 164.673 97.4545C164.454 97.6667 164.171 97.8428 163.827 97.983C163.482 98.1231 163.069 98.1932 162.588 98.1932ZM162.957 96.8295C163.427 96.8295 163.829 96.7367 164.162 96.5511C164.499 96.3655 164.755 96.1231 164.929 95.8239C165.107 95.5208 165.196 95.197 165.196 94.8523V93.7273C165.135 93.7879 165.018 93.8447 164.844 93.8977C164.673 93.947 164.478 93.9905 164.259 94.0284C164.039 94.0625 163.825 94.0947 163.616 94.125C163.408 94.1515 163.234 94.1742 163.094 94.1932C162.764 94.2348 162.463 94.3049 162.19 94.4034C161.921 94.5019 161.705 94.6439 161.543 94.8295C161.384 95.0114 161.304 95.2538 161.304 95.5568C161.304 95.9773 161.459 96.2955 161.77 96.5114C162.08 96.7235 162.476 96.8295 162.957 96.8295ZM169.158 101.273V89.2727H170.817V90.6875H170.959C171.057 90.5057 171.199 90.2955 171.385 90.0568C171.571 89.8182 171.828 89.6098 172.158 89.4318C172.487 89.25 172.923 89.1591 173.464 89.1591C174.169 89.1591 174.798 89.3371 175.351 89.6932C175.904 90.0492 176.338 90.5625 176.652 91.233C176.97 91.9034 177.129 92.7102 177.129 93.6534C177.129 94.5966 176.972 95.4053 176.658 96.0795C176.343 96.75 175.911 97.267 175.362 97.6307C174.813 97.9905 174.186 98.1705 173.482 98.1705C172.951 98.1705 172.518 98.0814 172.18 97.9034C171.847 97.7254 171.586 97.517 171.396 97.2784C171.207 97.0398 171.061 96.8277 170.959 96.642H170.857V101.273H169.158ZM170.822 93.6364C170.822 94.25 170.911 94.7879 171.089 95.25C171.268 95.7121 171.525 96.0739 171.862 96.3352C172.199 96.5928 172.612 96.7216 173.101 96.7216C173.608 96.7216 174.033 96.5871 174.374 96.3182C174.714 96.0455 174.972 95.6761 175.146 95.2102C175.324 94.7443 175.413 94.2197 175.413 93.6364C175.413 93.0606 175.326 92.5436 175.152 92.0852C174.982 91.6269 174.724 91.2652 174.379 91C174.038 90.7348 173.612 90.6023 173.101 90.6023C172.608 90.6023 172.192 90.7292 171.851 90.983C171.514 91.2367 171.258 91.5909 171.084 92.0455C170.91 92.5 170.822 93.0303 170.822 93.6364ZM181.572 98.1932C181.019 98.1932 180.519 98.0909 180.072 97.8864C179.625 97.678 179.271 97.3769 179.01 96.983C178.752 96.589 178.624 96.1061 178.624 95.5341C178.624 95.0417 178.718 94.6364 178.908 94.3182C179.097 94 179.353 93.7481 179.675 93.5625C179.997 93.3769 180.357 93.2367 180.754 93.142C181.152 93.0473 181.557 92.9754 181.97 92.9261C182.493 92.8655 182.917 92.8163 183.243 92.7784C183.569 92.7367 183.805 92.6705 183.953 92.5795C184.101 92.4886 184.175 92.3409 184.175 92.1364V92.0966C184.175 91.6004 184.035 91.2159 183.754 90.9432C183.478 90.6705 183.065 90.5341 182.516 90.5341C181.944 90.5341 181.493 90.661 181.163 90.9148C180.838 91.1648 180.612 91.4432 180.487 91.75L178.891 91.3864C179.08 90.8561 179.357 90.428 179.72 90.1023C180.088 89.7727 180.51 89.5341 180.987 89.3864C181.464 89.2348 181.966 89.1591 182.493 89.1591C182.841 89.1591 183.211 89.2008 183.601 89.2841C183.995 89.3636 184.362 89.5114 184.703 89.7273C185.048 89.9432 185.33 90.2519 185.55 90.6534C185.769 91.0511 185.879 91.5682 185.879 92.2045V98H184.22V96.8068H184.152C184.042 97.0265 183.877 97.2424 183.658 97.4545C183.438 97.6667 183.156 97.8428 182.811 97.983C182.466 98.1231 182.054 98.1932 181.572 98.1932ZM181.942 96.8295C182.411 96.8295 182.813 96.7367 183.146 96.5511C183.483 96.3655 183.739 96.1231 183.913 95.8239C184.091 95.5208 184.18 95.197 184.18 94.8523V93.7273C184.12 93.7879 184.002 93.8447 183.828 93.8977C183.658 93.947 183.463 93.9905 183.243 94.0284C183.023 94.0625 182.809 94.0947 182.601 94.125C182.393 94.1515 182.218 94.1742 182.078 94.1932C181.749 94.2348 181.447 94.3049 181.175 94.4034C180.906 94.5019 180.69 94.6439 180.527 94.8295C180.368 95.0114 180.288 95.2538 180.288 95.5568C180.288 95.9773 180.444 96.2955 180.754 96.5114C181.065 96.7235 181.461 96.8295 181.942 96.8295ZM189.807 95.6193L193.653 89.2727H195.483V98H193.818V91.6477L189.989 98H188.142V89.2727H189.807V95.6193ZM192.926 86.3182H194.324C194.324 86.9583 194.097 87.4792 193.642 87.8807C193.191 88.2784 192.581 88.4773 191.812 88.4773C191.047 88.4773 190.439 88.2784 189.989 87.8807C189.538 87.4792 189.312 86.9583 189.312 86.3182H190.705C190.705 86.6023 190.788 86.8542 190.955 87.0739C191.121 87.2898 191.407 87.3977 191.812 87.3977C192.21 87.3977 192.494 87.2898 192.665 87.0739C192.839 86.858 192.926 86.6061 192.926 86.3182ZM201.443 98.1761C200.598 98.1761 199.871 97.9848 199.261 97.6023C198.655 97.2159 198.189 96.6837 197.864 96.0057C197.538 95.3277 197.375 94.5511 197.375 93.6761C197.375 92.7898 197.542 92.0076 197.875 91.3295C198.208 90.6477 198.678 90.1155 199.284 89.733C199.89 89.3504 200.604 89.1591 201.426 89.1591C202.089 89.1591 202.68 89.2822 203.199 89.5284C203.718 89.7708 204.136 90.1117 204.455 90.5511C204.777 90.9905 204.968 91.5038 205.028 92.0909H203.375C203.284 91.6818 203.076 91.3295 202.75 91.0341C202.428 90.7386 201.996 90.5909 201.455 90.5909C200.981 90.5909 200.566 90.7159 200.21 90.9659C199.858 91.2121 199.583 91.5644 199.386 92.0227C199.189 92.4773 199.091 93.0152 199.091 93.6364C199.091 94.2727 199.188 94.822 199.381 95.2841C199.574 95.7462 199.847 96.1042 200.199 96.358C200.555 96.6117 200.973 96.7386 201.455 96.7386C201.777 96.7386 202.068 96.6799 202.33 96.5625C202.595 96.4413 202.816 96.2689 202.994 96.0455C203.176 95.822 203.303 95.553 203.375 95.2386H205.028C204.968 95.803 204.784 96.3068 204.477 96.75C204.17 97.1932 203.759 97.5417 203.244 97.7955C202.733 98.0492 202.133 98.1761 201.443 98.1761ZM206.845 98V89.2727H208.544V92.9318H209.362L212.243 89.2727H214.345L210.964 93.517L214.385 98H212.277L209.646 94.5114H208.544V98H206.845ZM217.369 95.6193L221.216 89.2727H223.045V98H221.381V91.6477L217.551 98H215.705V89.2727H217.369V95.6193ZM226.994 95.6193L230.841 89.2727H232.67V98H231.006V91.6477L227.176 98H225.33V89.2727H226.994V95.6193ZM230.114 86.3182H231.511C231.511 86.9583 231.284 87.4792 230.83 87.8807C230.379 88.2784 229.769 88.4773 229 88.4773C228.235 88.4773 227.627 88.2784 227.176 87.8807C226.725 87.4792 226.5 86.9583 226.5 86.3182H227.892C227.892 86.6023 227.975 86.8542 228.142 87.0739C228.309 87.2898 228.595 87.3977 229 87.3977C229.398 87.3977 229.682 87.2898 229.852 87.0739C230.027 86.858 230.114 86.6061 230.114 86.3182ZM239.189 101.273V89.2727H240.848V90.6875H240.99C241.089 90.5057 241.231 90.2955 241.416 90.0568C241.602 89.8182 241.859 89.6098 242.189 89.4318C242.518 89.25 242.954 89.1591 243.496 89.1591C244.2 89.1591 244.829 89.3371 245.382 89.6932C245.935 90.0492 246.369 90.5625 246.683 91.233C247.001 91.9034 247.161 92.7102 247.161 93.6534C247.161 94.5966 247.003 95.4053 246.689 96.0795C246.375 96.75 245.943 97.267 245.393 97.6307C244.844 97.9905 244.217 98.1705 243.513 98.1705C242.982 98.1705 242.549 98.0814 242.212 97.9034C241.878 97.7254 241.617 97.517 241.428 97.2784C241.238 97.0398 241.092 96.8277 240.99 96.642H240.888V101.273H239.189ZM240.854 93.6364C240.854 94.25 240.943 94.7879 241.121 95.25C241.299 95.7121 241.556 96.0739 241.893 96.3352C242.231 96.5928 242.643 96.7216 243.132 96.7216C243.64 96.7216 244.064 96.5871 244.405 96.3182C244.746 96.0455 245.003 95.6761 245.178 95.2102C245.356 94.7443 245.445 94.2197 245.445 93.6364C245.445 93.0606 245.357 92.5436 245.183 92.0852C245.013 91.6269 244.755 91.2652 244.411 91C244.07 90.7348 243.643 90.6023 243.132 90.6023C242.64 90.6023 242.223 90.7292 241.882 90.983C241.545 91.2367 241.289 91.5909 241.115 92.0455C240.941 92.5 240.854 93.0303 240.854 93.6364ZM251.604 98.1932C251.051 98.1932 250.551 98.0909 250.104 97.8864C249.657 97.678 249.303 97.3769 249.041 96.983C248.784 96.589 248.655 96.1061 248.655 95.5341C248.655 95.0417 248.75 94.6364 248.939 94.3182C249.128 94 249.384 93.7481 249.706 93.5625C250.028 93.3769 250.388 93.2367 250.786 93.142C251.183 93.0473 251.589 92.9754 252.001 92.9261C252.524 92.8655 252.948 92.8163 253.274 92.7784C253.6 92.7367 253.837 92.6705 253.984 92.5795C254.132 92.4886 254.206 92.3409 254.206 92.1364V92.0966C254.206 91.6004 254.066 91.2159 253.786 90.9432C253.509 90.6705 253.096 90.5341 252.547 90.5341C251.975 90.5341 251.524 90.661 251.195 90.9148C250.869 91.1648 250.643 91.4432 250.518 91.75L248.922 91.3864C249.111 90.8561 249.388 90.428 249.751 90.1023C250.119 89.7727 250.541 89.5341 251.018 89.3864C251.496 89.2348 251.998 89.1591 252.524 89.1591C252.873 89.1591 253.242 89.2008 253.632 89.2841C254.026 89.3636 254.393 89.5114 254.734 89.7273C255.079 89.9432 255.361 90.2519 255.581 90.6534C255.801 91.0511 255.911 91.5682 255.911 92.2045V98H254.251V96.8068H254.183C254.073 97.0265 253.909 97.2424 253.689 97.4545C253.469 97.6667 253.187 97.8428 252.842 97.983C252.498 98.1231 252.085 98.1932 251.604 98.1932ZM251.973 96.8295C252.443 96.8295 252.844 96.7367 253.178 96.5511C253.515 96.3655 253.77 96.1231 253.945 95.8239C254.123 95.5208 254.212 95.197 254.212 94.8523V93.7273C254.151 93.7879 254.034 93.8447 253.859 93.8977C253.689 93.947 253.494 93.9905 253.274 94.0284C253.054 94.0625 252.84 94.0947 252.632 94.125C252.424 94.1515 252.25 94.1742 252.109 94.1932C251.78 94.2348 251.479 94.3049 251.206 94.4034C250.937 94.5019 250.721 94.6439 250.558 94.8295C250.399 95.0114 250.32 95.2538 250.32 95.5568C250.32 95.9773 250.475 96.2955 250.786 96.5114C251.096 96.7235 251.492 96.8295 251.973 96.8295ZM259.838 95.6193L263.685 89.2727H265.514V98H263.849V91.6477L260.02 98H258.173V89.2727H259.838V95.6193ZM262.957 86.3182H264.355C264.355 86.9583 264.128 87.4792 263.673 87.8807C263.223 88.2784 262.613 88.4773 261.844 88.4773C261.079 88.4773 260.471 88.2784 260.02 87.8807C259.569 87.4792 259.344 86.9583 259.344 86.3182H260.736C260.736 86.6023 260.819 86.8542 260.986 87.0739C261.152 87.2898 261.438 87.3977 261.844 87.3977C262.241 87.3977 262.526 87.2898 262.696 87.0739C262.87 86.858 262.957 86.6061 262.957 86.3182ZM271.474 98.1761C270.656 98.1761 269.942 97.9886 269.332 97.6136C268.723 97.2386 268.249 96.714 267.912 96.0398C267.575 95.3655 267.406 94.5777 267.406 93.6761C267.406 92.7708 267.575 91.9792 267.912 91.3011C268.249 90.6231 268.723 90.0966 269.332 89.7216C269.942 89.3466 270.656 89.1591 271.474 89.1591C272.293 89.1591 273.007 89.3466 273.616 89.7216C274.226 90.0966 274.7 90.6231 275.037 91.3011C275.374 91.9792 275.543 92.7708 275.543 93.6761C275.543 94.5777 275.374 95.3655 275.037 96.0398C274.7 96.714 274.226 97.2386 273.616 97.6136C273.007 97.9886 272.293 98.1761 271.474 98.1761ZM271.48 96.75C272.01 96.75 272.45 96.6098 272.798 96.3295C273.147 96.0492 273.404 95.6761 273.571 95.2102C273.741 94.7443 273.827 94.2311 273.827 93.6705C273.827 93.1136 273.741 92.6023 273.571 92.1364C273.404 91.6667 273.147 91.2898 272.798 91.0057C272.45 90.7216 272.01 90.5795 271.48 90.5795C270.946 90.5795 270.503 90.7216 270.151 91.0057C269.802 91.2898 269.543 91.6667 269.372 92.1364C269.205 92.6023 269.122 93.1136 269.122 93.6705C269.122 94.2311 269.205 94.7443 269.372 95.2102C269.543 95.6761 269.802 96.0492 270.151 96.3295C270.503 96.6098 270.946 96.75 271.48 96.75ZM283.354 92.9034V94.375H278.626V92.9034H283.354ZM279.104 89.2727V98H277.439V89.2727H279.104ZM284.541 89.2727V98H282.882V89.2727H284.541ZM289.024 96.4091L288.939 97.0284C288.882 97.483 288.786 97.9564 288.649 98.4489C288.517 98.9451 288.378 99.4053 288.234 99.8295C288.094 100.254 287.979 100.591 287.888 100.841H286.683C286.732 100.606 286.801 100.288 286.888 99.8864C286.975 99.4886 287.06 99.0436 287.143 98.5511C287.227 98.0587 287.289 97.5568 287.331 97.0455L287.388 96.4091H289.024ZM30.2159 125.273C29.9621 125.273 29.7311 125.252 29.5227 125.21C29.3144 125.172 29.1591 125.131 29.0568 125.085L29.4659 123.693C29.7765 123.777 30.053 123.813 30.2955 123.801C30.5379 123.79 30.7519 123.699 30.9375 123.528C31.1269 123.358 31.2936 123.08 31.4375 122.693L31.6477 122.114L28.4545 113.273H30.2727L32.483 120.045H32.5739L34.7841 113.273H36.608L33.0114 123.165C32.8447 123.619 32.6326 124.004 32.375 124.318C32.1174 124.636 31.8106 124.875 31.4545 125.034C31.0985 125.193 30.6856 125.273 30.2159 125.273ZM36.7983 122L36.7926 120.528H37.1051C37.3475 120.528 37.5502 120.477 37.7131 120.375C37.8797 120.269 38.0161 120.091 38.1222 119.841C38.2282 119.591 38.3097 119.246 38.3665 118.807C38.4233 118.364 38.465 117.807 38.4915 117.136L38.6449 113.273H44.7358V122H43.071V114.739H40.2188L40.0824 117.705C40.0483 118.424 39.9744 119.053 39.8608 119.591C39.7509 120.129 39.59 120.578 39.3778 120.938C39.1657 121.294 38.893 121.561 38.5597 121.739C38.2263 121.913 37.821 122 37.3438 122H36.7983ZM48.6662 119.619L52.5128 113.273H54.3423V122H52.6776V115.648L48.848 122H47.0014V113.273H48.6662V119.619ZM63.7457 113.273V120.608H65.0241V124.812H63.348V122H56.6264V113.273H58.2912V120.534H62.0866V113.273H63.7457ZM69.4474 122.193C68.8944 122.193 68.3944 122.091 67.9474 121.886C67.5005 121.678 67.1463 121.377 66.8849 120.983C66.6274 120.589 66.4986 120.106 66.4986 119.534C66.4986 119.042 66.5933 118.636 66.7827 118.318C66.9721 118 67.2277 117.748 67.5497 117.562C67.8717 117.377 68.2315 117.237 68.6293 117.142C69.027 117.047 69.4323 116.975 69.8452 116.926C70.3679 116.866 70.7921 116.816 71.1179 116.778C71.4437 116.737 71.6804 116.67 71.8281 116.58C71.9759 116.489 72.0497 116.341 72.0497 116.136V116.097C72.0497 115.6 71.9096 115.216 71.6293 114.943C71.3527 114.67 70.9399 114.534 70.3906 114.534C69.8187 114.534 69.3679 114.661 69.0384 114.915C68.7126 115.165 68.4872 115.443 68.3622 115.75L66.7656 115.386C66.955 114.856 67.2315 114.428 67.5952 114.102C67.9626 113.773 68.3849 113.534 68.8622 113.386C69.3395 113.235 69.8414 113.159 70.3679 113.159C70.7164 113.159 71.0857 113.201 71.4759 113.284C71.8698 113.364 72.2372 113.511 72.5781 113.727C72.9228 113.943 73.205 114.252 73.4247 114.653C73.6444 115.051 73.7543 115.568 73.7543 116.205V122H72.0952V120.807H72.027C71.9171 121.027 71.7524 121.242 71.5327 121.455C71.313 121.667 71.0308 121.843 70.6861 121.983C70.3414 122.123 69.9285 122.193 69.4474 122.193ZM69.8168 120.83C70.2865 120.83 70.688 120.737 71.0213 120.551C71.3584 120.366 71.6141 120.123 71.7884 119.824C71.9664 119.521 72.0554 119.197 72.0554 118.852V117.727C71.9948 117.788 71.8774 117.845 71.7031 117.898C71.5327 117.947 71.3376 117.991 71.1179 118.028C70.8982 118.062 70.6842 118.095 70.4759 118.125C70.2675 118.152 70.0933 118.174 69.9531 118.193C69.6236 118.235 69.3224 118.305 69.0497 118.403C68.7808 118.502 68.5649 118.644 68.402 118.83C68.2429 119.011 68.1634 119.254 68.1634 119.557C68.1634 119.977 68.3187 120.295 68.6293 120.511C68.9399 120.723 69.3357 120.83 69.8168 120.83ZM80.3878 122V110.364H87.6435V111.875H82.1435V115.057H84.7457C85.6094 115.057 86.3423 115.197 86.9446 115.477C87.5507 115.758 88.0128 116.153 88.331 116.665C88.6529 117.176 88.8139 117.778 88.8139 118.472C88.8139 119.165 88.6529 119.777 88.331 120.307C88.0128 120.837 87.5507 121.252 86.9446 121.551C86.3423 121.85 85.6094 122 84.7457 122H80.3878ZM82.1435 120.523H84.7457C85.2457 120.523 85.6681 120.424 86.0128 120.227C86.3613 120.03 86.6245 119.775 86.8026 119.46C86.9844 119.146 87.0753 118.809 87.0753 118.449C87.0753 117.926 86.8745 117.477 86.473 117.102C86.0715 116.723 85.4957 116.534 84.7457 116.534H82.1435V120.523ZM94.4276 122.176C93.6094 122.176 92.8954 121.989 92.2855 121.614C91.6757 121.239 91.2022 120.714 90.8651 120.04C90.5279 119.366 90.3594 118.578 90.3594 117.676C90.3594 116.771 90.5279 115.979 90.8651 115.301C91.2022 114.623 91.6757 114.097 92.2855 113.722C92.8954 113.347 93.6094 113.159 94.4276 113.159C95.2457 113.159 95.9598 113.347 96.5696 113.722C97.1795 114.097 97.6529 114.623 97.9901 115.301C98.3272 115.979 98.4957 116.771 98.4957 117.676C98.4957 118.578 98.3272 119.366 97.9901 120.04C97.6529 120.714 97.1795 121.239 96.5696 121.614C95.9598 121.989 95.2457 122.176 94.4276 122.176ZM94.4332 120.75C94.9635 120.75 95.4029 120.61 95.7514 120.33C96.0999 120.049 96.3575 119.676 96.5241 119.21C96.6946 118.744 96.7798 118.231 96.7798 117.67C96.7798 117.114 96.6946 116.602 96.5241 116.136C96.3575 115.667 96.0999 115.29 95.7514 115.006C95.4029 114.722 94.9635 114.58 94.4332 114.58C93.8991 114.58 93.456 114.722 93.1037 115.006C92.7552 115.29 92.4957 115.667 92.3253 116.136C92.1586 116.602 92.0753 117.114 92.0753 117.67C92.0753 118.231 92.1586 118.744 92.3253 119.21C92.4957 119.676 92.7552 120.049 93.1037 120.33C93.456 120.61 93.8991 120.75 94.4332 120.75ZM105.972 113.273V114.739H102.068V122H100.392V113.273H105.972ZM109.432 119.619L113.278 113.273H115.108V122H113.443V115.648L109.614 122H107.767V113.273H109.432V119.619ZM124.125 110.023L124.83 111.097C124.568 111.335 124.271 111.506 123.938 111.608C123.608 111.706 123.227 111.769 122.795 111.795C122.364 111.818 121.869 111.839 121.312 111.858C120.684 111.877 120.167 112.013 119.761 112.267C119.356 112.517 119.044 112.888 118.824 113.381C118.608 113.869 118.468 114.483 118.403 115.222H118.511C118.795 114.68 119.189 114.275 119.693 114.006C120.201 113.737 120.771 113.602 121.403 113.602C122.108 113.602 122.735 113.763 123.284 114.085C123.833 114.407 124.265 114.879 124.58 115.5C124.898 116.117 125.057 116.873 125.057 117.767C125.057 118.672 124.89 119.455 124.557 120.114C124.227 120.773 123.761 121.282 123.159 121.642C122.561 121.998 121.854 122.176 121.04 122.176C120.225 122.176 119.515 121.992 118.909 121.625C118.307 121.254 117.839 120.705 117.506 119.977C117.176 119.25 117.011 118.352 117.011 117.284V116.42C117.011 114.424 117.367 112.922 118.08 111.915C118.792 110.907 119.856 110.39 121.273 110.364C121.731 110.352 122.14 110.35 122.5 110.358C122.86 110.362 123.174 110.345 123.443 110.307C123.716 110.265 123.943 110.17 124.125 110.023ZM121.045 120.75C121.519 120.75 121.926 120.631 122.267 120.392C122.612 120.15 122.877 119.807 123.062 119.364C123.248 118.92 123.341 118.398 123.341 117.795C123.341 117.205 123.248 116.703 123.062 116.29C122.877 115.877 122.612 115.562 122.267 115.347C121.922 115.127 121.509 115.017 121.028 115.017C120.672 115.017 120.354 115.08 120.074 115.205C119.794 115.326 119.553 115.506 119.352 115.744C119.155 115.983 119.002 116.275 118.892 116.619C118.786 116.96 118.729 117.352 118.722 117.795C118.722 118.697 118.928 119.415 119.341 119.949C119.758 120.483 120.326 120.75 121.045 120.75ZM130.631 122.176C129.813 122.176 129.098 121.989 128.489 121.614C127.879 121.239 127.405 120.714 127.068 120.04C126.731 119.366 126.562 118.578 126.562 117.676C126.562 116.771 126.731 115.979 127.068 115.301C127.405 114.623 127.879 114.097 128.489 113.722C129.098 113.347 129.813 113.159 130.631 113.159C131.449 113.159 132.163 113.347 132.773 113.722C133.383 114.097 133.856 114.623 134.193 115.301C134.53 115.979 134.699 116.771 134.699 117.676C134.699 118.578 134.53 119.366 134.193 120.04C133.856 120.714 133.383 121.239 132.773 121.614C132.163 121.989 131.449 122.176 130.631 122.176ZM130.636 120.75C131.167 120.75 131.606 120.61 131.955 120.33C132.303 120.049 132.561 119.676 132.727 119.21C132.898 118.744 132.983 118.231 132.983 117.67C132.983 117.114 132.898 116.602 132.727 116.136C132.561 115.667 132.303 115.29 131.955 115.006C131.606 114.722 131.167 114.58 130.636 114.58C130.102 114.58 129.659 114.722 129.307 115.006C128.958 115.29 128.699 115.667 128.528 116.136C128.362 116.602 128.278 117.114 128.278 117.67C128.278 118.231 128.362 118.744 128.528 119.21C128.699 119.676 128.958 120.049 129.307 120.33C129.659 120.61 130.102 120.75 130.636 120.75ZM140.271 122.176C139.427 122.176 138.699 121.985 138.089 121.602C137.483 121.216 137.018 120.684 136.692 120.006C136.366 119.328 136.203 118.551 136.203 117.676C136.203 116.79 136.37 116.008 136.703 115.33C137.036 114.648 137.506 114.116 138.112 113.733C138.718 113.35 139.432 113.159 140.254 113.159C140.917 113.159 141.508 113.282 142.027 113.528C142.546 113.771 142.964 114.112 143.283 114.551C143.605 114.991 143.796 115.504 143.857 116.091H142.203C142.112 115.682 141.904 115.33 141.578 115.034C141.256 114.739 140.824 114.591 140.283 114.591C139.809 114.591 139.394 114.716 139.038 114.966C138.686 115.212 138.411 115.564 138.214 116.023C138.018 116.477 137.919 117.015 137.919 117.636C137.919 118.273 138.016 118.822 138.209 119.284C138.402 119.746 138.675 120.104 139.027 120.358C139.383 120.612 139.802 120.739 140.283 120.739C140.605 120.739 140.896 120.68 141.158 120.562C141.423 120.441 141.644 120.269 141.822 120.045C142.004 119.822 142.131 119.553 142.203 119.239H143.857C143.796 119.803 143.612 120.307 143.305 120.75C142.999 121.193 142.588 121.542 142.072 121.795C141.561 122.049 140.961 122.176 140.271 122.176ZM145.013 114.739V113.273H152.376V114.739H149.53V122H147.871V114.739H145.013ZM156.307 122.193C155.754 122.193 155.254 122.091 154.807 121.886C154.36 121.678 154.006 121.377 153.744 120.983C153.487 120.589 153.358 120.106 153.358 119.534C153.358 119.042 153.453 118.636 153.642 118.318C153.831 118 154.087 117.748 154.409 117.562C154.731 117.377 155.091 117.237 155.489 117.142C155.886 117.047 156.292 116.975 156.705 116.926C157.227 116.866 157.652 116.816 157.977 116.778C158.303 116.737 158.54 116.67 158.688 116.58C158.835 116.489 158.909 116.341 158.909 116.136V116.097C158.909 115.6 158.769 115.216 158.489 114.943C158.212 114.67 157.799 114.534 157.25 114.534C156.678 114.534 156.227 114.661 155.898 114.915C155.572 115.165 155.347 115.443 155.222 115.75L153.625 115.386C153.814 114.856 154.091 114.428 154.455 114.102C154.822 113.773 155.244 113.534 155.722 113.386C156.199 113.235 156.701 113.159 157.227 113.159C157.576 113.159 157.945 113.201 158.335 113.284C158.729 113.364 159.097 113.511 159.438 113.727C159.782 113.943 160.064 114.252 160.284 114.653C160.504 115.051 160.614 115.568 160.614 116.205V122H158.955V120.807H158.886C158.777 121.027 158.612 121.242 158.392 121.455C158.172 121.667 157.89 121.843 157.545 121.983C157.201 122.123 156.788 122.193 156.307 122.193ZM156.676 120.83C157.146 120.83 157.547 120.737 157.881 120.551C158.218 120.366 158.473 120.123 158.648 119.824C158.826 119.521 158.915 119.197 158.915 118.852V117.727C158.854 117.788 158.737 117.845 158.562 117.898C158.392 117.947 158.197 117.991 157.977 118.028C157.758 118.062 157.544 118.095 157.335 118.125C157.127 118.152 156.953 118.174 156.812 118.193C156.483 118.235 156.182 118.305 155.909 118.403C155.64 118.502 155.424 118.644 155.261 118.83C155.102 119.011 155.023 119.254 155.023 119.557C155.023 119.977 155.178 120.295 155.489 120.511C155.799 120.723 156.195 120.83 156.676 120.83ZM168.791 116.903V118.375H164.064V116.903H168.791ZM164.541 113.273V122H162.876V113.273H164.541ZM169.979 113.273V122H168.32V113.273H169.979ZM174.462 120.409L174.376 121.028C174.32 121.483 174.223 121.956 174.087 122.449C173.954 122.945 173.816 123.405 173.672 123.83C173.532 124.254 173.416 124.591 173.325 124.841H172.121C172.17 124.606 172.238 124.288 172.325 123.886C172.412 123.489 172.498 123.044 172.581 122.551C172.664 122.059 172.727 121.557 172.768 121.045L172.825 120.409H174.462ZM185.3 110.364V122H183.538V112.125H183.47L180.686 113.943V112.261L183.589 110.364H185.3ZM192.379 122.159C191.565 122.159 190.845 122.019 190.22 121.739C189.599 121.458 189.112 121.072 188.76 120.58C188.408 120.087 188.233 119.527 188.237 118.898C188.233 118.405 188.334 117.953 188.538 117.54C188.747 117.123 189.029 116.777 189.385 116.5C189.741 116.22 190.139 116.042 190.578 115.966V115.898C189.999 115.758 189.535 115.447 189.186 114.966C188.838 114.485 188.665 113.932 188.669 113.307C188.665 112.712 188.822 112.182 189.141 111.716C189.463 111.246 189.904 110.877 190.464 110.608C191.025 110.339 191.663 110.205 192.379 110.205C193.088 110.205 193.72 110.341 194.277 110.614C194.838 110.883 195.279 111.252 195.601 111.722C195.923 112.187 196.086 112.716 196.089 113.307C196.086 113.932 195.908 114.485 195.555 114.966C195.203 115.447 194.745 115.758 194.18 115.898V115.966C194.616 116.042 195.008 116.22 195.357 116.5C195.709 116.777 195.989 117.123 196.197 117.54C196.41 117.953 196.518 118.405 196.521 118.898C196.518 119.527 196.339 120.087 195.987 120.58C195.635 121.072 195.146 121.458 194.521 121.739C193.9 122.019 193.186 122.159 192.379 122.159ZM192.379 120.722C192.86 120.722 193.277 120.642 193.629 120.483C193.982 120.32 194.254 120.095 194.447 119.807C194.641 119.515 194.739 119.174 194.743 118.784C194.739 118.379 194.633 118.021 194.425 117.71C194.22 117.4 193.942 117.155 193.589 116.977C193.237 116.799 192.834 116.71 192.379 116.71C191.921 116.71 191.514 116.799 191.158 116.977C190.802 117.155 190.521 117.4 190.317 117.71C190.112 118.021 190.012 118.379 190.016 118.784C190.012 119.174 190.105 119.515 190.294 119.807C190.487 120.095 190.762 120.32 191.118 120.483C191.474 120.642 191.894 120.722 192.379 120.722ZM192.379 115.307C192.766 115.307 193.108 115.229 193.408 115.074C193.707 114.919 193.942 114.703 194.112 114.426C194.286 114.15 194.375 113.826 194.379 113.455C194.375 113.091 194.288 112.773 194.118 112.5C193.951 112.227 193.718 112.017 193.419 111.869C193.12 111.718 192.773 111.642 192.379 111.642C191.978 111.642 191.625 111.718 191.322 111.869C191.023 112.017 190.79 112.227 190.624 112.5C190.457 112.773 190.375 113.091 190.379 113.455C190.375 113.826 190.459 114.15 190.629 114.426C190.8 114.703 191.035 114.919 191.334 115.074C191.637 115.229 191.985 115.307 192.379 115.307ZM202.619 122.159C202.1 122.152 201.589 122.057 201.085 121.875C200.585 121.693 200.131 121.39 199.722 120.966C199.313 120.542 198.985 119.972 198.739 119.256C198.496 118.54 198.375 117.646 198.375 116.574C198.375 115.559 198.475 114.657 198.676 113.869C198.881 113.081 199.174 112.417 199.557 111.875C199.939 111.33 200.402 110.915 200.943 110.631C201.485 110.347 202.093 110.205 202.767 110.205C203.46 110.205 204.076 110.341 204.614 110.614C205.152 110.886 205.587 111.263 205.92 111.744C206.258 112.225 206.472 112.773 206.562 113.386H204.83C204.712 112.902 204.479 112.506 204.131 112.199C203.782 111.892 203.328 111.739 202.767 111.739C201.915 111.739 201.25 112.11 200.773 112.852C200.299 113.595 200.061 114.627 200.057 115.949H200.142C200.343 115.619 200.589 115.339 200.881 115.108C201.176 114.873 201.506 114.693 201.869 114.568C202.237 114.439 202.623 114.375 203.028 114.375C203.703 114.375 204.313 114.54 204.858 114.869C205.407 115.195 205.845 115.646 206.17 116.222C206.496 116.797 206.659 117.456 206.659 118.199C206.659 118.941 206.491 119.614 206.153 120.216C205.82 120.818 205.35 121.295 204.744 121.648C204.138 121.996 203.43 122.167 202.619 122.159ZM202.614 120.682C203.061 120.682 203.46 120.572 203.812 120.352C204.165 120.133 204.443 119.837 204.648 119.466C204.852 119.095 204.955 118.68 204.955 118.222C204.955 117.775 204.854 117.367 204.653 117C204.456 116.633 204.184 116.341 203.835 116.125C203.491 115.909 203.097 115.801 202.653 115.801C202.316 115.801 202.004 115.866 201.716 115.994C201.432 116.123 201.182 116.301 200.966 116.528C200.75 116.756 200.58 117.017 200.455 117.312C200.333 117.604 200.273 117.913 200.273 118.239C200.273 118.674 200.373 119.078 200.574 119.449C200.778 119.82 201.057 120.119 201.409 120.347C201.765 120.57 202.167 120.682 202.614 120.682Z" fill="#344051"/>
</svg>
