<svg width="132" height="24" viewBox="0 0 132 24" fill="none" xmlns="http://www.w3.org/2000/svg">
<rect x="1.5" y="1.5" width="21" height="21" rx="6" fill="#97A1AF"/>
<rect x="1.5" y="1.5" width="21" height="21" rx="6" fill="#97A1AF"/>
<rect x="1.5" y="1.5" width="21" height="21" rx="6" fill="#97A1AF"/>
<path d="M17.25 7.875C17.25 8.49632 16.7463 9 16.125 9C15.5037 9 15 8.49632 15 7.875C15 7.25368 15.5037 6.75 16.125 6.75C16.7463 6.75 17.25 7.25368 17.25 7.875Z" fill="white"/>
<path fill-rule="evenodd" clip-rule="evenodd" d="M12 15.75C14.0711 15.75 15.75 14.0711 15.75 12C15.75 9.92893 14.0711 8.25 12 8.25C9.92893 8.25 8.25 9.92893 8.25 12C8.25 14.0711 9.92893 15.75 12 15.75ZM12 14.25C13.2426 14.25 14.25 13.2426 14.25 12C14.25 10.7574 13.2426 9.75 12 9.75C10.7574 9.75 9.75 10.7574 9.75 12C9.75 13.2426 10.7574 14.25 12 14.25Z" fill="white"/>
<path fill-rule="evenodd" clip-rule="evenodd" d="M4.5 11.7C4.5 9.17976 4.5 7.91965 4.99047 6.95704C5.4219 6.11031 6.11031 5.4219 6.95704 4.99047C7.91965 4.5 9.17976 4.5 11.7 4.5H12.3C14.8202 4.5 16.0804 4.5 17.043 4.99047C17.8897 5.4219 18.5781 6.11031 19.0095 6.95704C19.5 7.91965 19.5 9.17976 19.5 11.7V12.3C19.5 14.8202 19.5 16.0804 19.0095 17.043C18.5781 17.8897 17.8897 18.5781 17.043 19.0095C16.0804 19.5 14.8202 19.5 12.3 19.5H11.7C9.17976 19.5 7.91965 19.5 6.95704 19.0095C6.11031 18.5781 5.4219 17.8897 4.99047 17.043C4.5 16.0804 4.5 14.8202 4.5 12.3V11.7ZM11.7 6H12.3C13.5849 6 14.4583 6.00117 15.1334 6.05633C15.7911 6.11006 16.1274 6.20745 16.362 6.32698C16.9265 6.6146 17.3854 7.07354 17.673 7.63803C17.7926 7.87263 17.8899 8.20893 17.9437 8.86656C17.9988 9.54169 18 10.4151 18 11.7V12.3C18 13.5849 17.9988 14.4583 17.9437 15.1334C17.8899 15.7911 17.7926 16.1274 17.673 16.362C17.3854 16.9265 16.9265 17.3854 16.362 17.673C16.1274 17.7926 15.7911 17.8899 15.1334 17.9437C14.4583 17.9988 13.5849 18 12.3 18H11.7C10.4151 18 9.54169 17.9988 8.86656 17.9437C8.20893 17.8899 7.87263 17.7926 7.63803 17.673C7.07354 17.3854 6.6146 16.9265 6.32698 16.362C6.20745 16.1274 6.11006 15.7911 6.05633 15.1334C6.00117 14.4583 6 13.5849 6 12.3V11.7C6 10.4151 6.00117 9.54169 6.05633 8.86656C6.11006 8.20893 6.20745 7.87263 6.32698 7.63803C6.6146 7.07354 7.07354 6.6146 7.63803 6.32698C7.87263 6.20745 8.20893 6.11006 8.86656 6.05633C9.54169 6.00117 10.4151 6 11.7 6Z" fill="white"/>
<circle cx="48" cy="12" r="10.5" fill="#97A1AF"/>
<path d="M51.9103 15.2112L52.3767 12.2476H49.4589V10.3252C49.4589 9.51428 49.8657 8.7233 51.1726 8.7233H52.5V6.20024C52.5 6.20024 51.2959 6 50.1452 6C47.7411 6 46.1712 7.4197 46.1712 9.98883V12.2476H43.5V15.2112H46.1712V22.3759C46.7075 22.458 47.2562 22.5 47.8151 22.5C48.374 22.5 48.9226 22.458 49.4589 22.3759V15.2112H51.9103Z" fill="white"/>
<path d="M80.8416 21C78.4153 21 76.1536 20.2943 74.25 19.0767C75.8662 19.1813 78.7186 18.9308 80.4927 17.2386C77.8238 17.1161 76.6202 15.0692 76.4632 14.1945C76.69 14.2819 77.7715 14.3869 78.382 14.142C75.3119 13.3722 74.8409 10.678 74.9456 9.85573C75.5212 10.2581 76.4981 10.3981 76.8819 10.3631C74.0211 8.31618 75.0503 5.23707 75.5561 4.57226C77.6091 7.4165 80.6859 9.01393 84.4923 9.10278C84.4205 8.78802 84.3826 8.46032 84.3826 8.12373C84.3826 5.70819 86.3351 3.75 88.7435 3.75C90.0019 3.75 91.1358 4.28457 91.9318 5.13963C92.7727 4.94258 94.0382 4.4813 94.6569 4.0824C94.3451 5.20208 93.3742 6.13612 92.7869 6.48231C92.7821 6.47048 92.7918 6.49408 92.7869 6.48231C93.3028 6.40428 94.6986 6.13603 95.25 5.76192C94.9773 6.39094 93.948 7.4368 93.1033 8.02232C93.2605 14.9535 87.9574 21 80.8416 21Z" fill="#97A1AF"/>
<rect x="109.5" y="1.5" width="21" height="21" rx="10.5" fill="#97A1AF"/>
<path d="M117.464 7.26911C117.464 7.97002 116.856 8.53822 116.107 8.53822C115.358 8.53822 114.75 7.97002 114.75 7.26911C114.75 6.5682 115.358 6 116.107 6C116.856 6 117.464 6.5682 117.464 7.26911Z" fill="white"/>
<path d="M114.936 9.47107H117.255V16.5H114.936V9.47107Z" fill="white"/>
<path d="M120.99 9.47107H118.67V16.5H120.99C120.99 16.5 120.99 14.2872 120.99 12.9036C120.99 12.0732 121.273 11.2392 122.405 11.2392C123.683 11.2392 123.676 12.3259 123.67 13.1678C123.662 14.2683 123.68 15.3914 123.68 16.5H126V12.7903C125.98 10.4215 125.363 9.33006 123.332 9.33006C122.127 9.33006 121.379 9.87754 120.99 10.3729V9.47107Z" fill="white"/>
</svg>
